<svg width="185" height="56" viewBox="0 0 185 56" fill="none" xmlns="http://www.w3.org/2000/svg">
<path d="M0 27.9991L22.3405 35.204L28 0L0 27.9991Z" fill="#B8B7B5"/>
<path d="M22.3405 35.204L56 27.9991L28 0L22.3405 35.204Z" fill="#DBDADA"/>
<path d="M22.3405 35.2039L28 55.9999L0 27.999L22.3405 35.2039Z" fill="#948F8F"/>
<path d="M22.3405 35.2039L56 27.999L28 55.9999L22.3405 35.2039Z" fill="#CCCCCC"/>
<path d="M75.772 40V14.8H80.38V24.772H91.9V14.8H96.508V40H91.9V29.092H80.38V40H75.772ZM109.065 40.36C107.109 40.36 105.441 39.934 104.061 39.082C102.681 38.23 101.625 37.096 100.893 35.68C100.173 34.264 99.8127 32.716 99.8127 31.036C99.8127 29.344 100.173 27.784 100.893 26.356C101.625 24.928 102.681 23.788 104.061 22.936C105.441 22.072 107.109 21.64 109.065 21.64C111.021 21.64 112.689 22.072 114.069 22.936C115.449 23.788 116.499 24.928 117.219 26.356C117.951 27.784 118.317 29.344 118.317 31.036C118.317 32.716 117.951 34.264 117.219 35.68C116.499 37.096 115.449 38.23 114.069 39.082C112.689 39.934 111.021 40.36 109.065 40.36ZM109.065 36.688C110.565 36.688 111.717 36.166 112.521 35.122C113.337 34.066 113.745 32.704 113.745 31.036C113.745 29.344 113.337 27.97 112.521 26.914C111.717 25.846 110.565 25.312 109.065 25.312C107.577 25.312 106.425 25.846 105.609 26.914C104.793 27.97 104.385 29.344 104.385 31.036C104.385 32.704 104.793 34.066 105.609 35.122C106.425 36.166 107.577 36.688 109.065 36.688ZM125.312 40.36C124.352 40.36 123.476 40.15 122.684 39.73C121.892 39.298 121.262 38.68 120.794 37.876C120.326 37.072 120.092 36.1 120.092 34.96C120.092 33.94 120.326 33.07 120.794 32.35C121.274 31.618 121.898 31.012 122.666 30.532C123.446 30.04 124.286 29.656 125.186 29.38C126.098 29.092 126.992 28.882 127.868 28.75C128.756 28.618 129.536 28.54 130.208 28.516C130.16 27.484 129.896 26.734 129.416 26.266C128.936 25.798 128.12 25.564 126.968 25.564C126.164 25.564 125.378 25.678 124.61 25.906C123.854 26.122 122.996 26.464 122.036 26.932L121.64 23.296C122.72 22.768 123.8 22.372 124.88 22.108C125.972 21.844 127.076 21.712 128.192 21.712C129.536 21.712 130.694 21.952 131.666 22.432C132.638 22.912 133.388 23.686 133.916 24.754C134.444 25.81 134.708 27.208 134.708 28.948V33.808C134.708 34.708 134.75 35.362 134.834 35.77C134.918 36.166 135.074 36.418 135.302 36.526C135.53 36.634 135.86 36.688 136.292 36.688H136.868L136.472 40.36H134.852C134.18 40.36 133.58 40.27 133.052 40.09C132.536 39.922 132.092 39.682 131.72 39.37C131.348 39.058 131.048 38.692 130.82 38.272C130.232 38.932 129.434 39.448 128.426 39.82C127.43 40.18 126.392 40.36 125.312 40.36ZM127.184 36.94C127.58 36.94 128.072 36.838 128.66 36.634C129.248 36.418 129.776 36.088 130.244 35.644V31.54C129.404 31.576 128.564 31.714 127.724 31.954C126.884 32.194 126.182 32.548 125.618 33.016C125.054 33.484 124.772 34.072 124.772 34.78C124.772 35.512 124.964 36.058 125.348 36.418C125.732 36.766 126.344 36.94 127.184 36.94ZM139.354 40V22H143.53L143.71 25.348L142.666 23.98C143.35 23.404 144.166 22.882 145.114 22.414C146.062 21.946 147.166 21.712 148.426 21.712C150.73 21.712 152.44 22.48 153.556 24.016C154.672 25.54 155.23 27.52 155.23 29.956V40H150.766V30.316C150.766 28.636 150.484 27.394 149.92 26.59C149.368 25.786 148.462 25.384 147.202 25.384C146.182 25.384 145.348 25.636 144.7 26.14C144.052 26.632 143.482 27.292 142.99 28.12L143.818 25.924V40H139.354ZM166.345 49.072C164.665 49.072 163.195 48.862 161.935 48.442C160.687 48.034 159.715 47.446 159.019 46.678C158.335 45.91 157.993 44.992 157.993 43.924C157.993 43.024 158.239 42.22 158.731 41.512C159.235 40.816 159.961 40.204 160.909 39.676C160.429 39.388 160.045 39.028 159.757 38.596C159.469 38.164 159.325 37.672 159.325 37.12C159.325 36.544 159.487 36.046 159.811 35.626C160.147 35.194 160.585 34.852 161.125 34.6C160.213 33.952 159.523 33.124 159.055 32.116C158.587 31.096 158.353 29.992 158.353 28.804C158.353 27.508 158.635 26.32 159.199 25.24C159.763 24.148 160.585 23.278 161.665 22.63C162.757 21.97 164.089 21.64 165.661 21.64C166.477 21.64 167.227 21.742 167.911 21.946C168.607 22.15 169.225 22.432 169.765 22.792C170.125 22.588 170.647 22.408 171.331 22.252C172.015 22.084 172.777 22 173.617 22C173.821 22 174.013 22 174.193 22C174.385 22 174.577 22 174.769 22L174.481 24.808C174.217 24.808 173.947 24.808 173.671 24.808C173.407 24.808 173.137 24.808 172.861 24.808C172.753 24.808 172.609 24.808 172.429 24.808C172.249 24.808 172.057 24.82 171.853 24.844C172.213 25.396 172.483 26.014 172.663 26.698C172.843 27.382 172.933 28.084 172.933 28.804C172.933 30.1 172.651 31.294 172.087 32.386C171.535 33.466 170.719 34.336 169.639 34.996C168.559 35.644 167.233 35.968 165.661 35.968C165.325 35.968 165.001 35.944 164.689 35.896C164.377 35.848 164.065 35.788 163.753 35.716C163.489 35.824 163.357 36.016 163.357 36.292C163.357 36.616 163.555 36.862 163.951 37.03C164.347 37.198 164.965 37.348 165.805 37.48L168.901 37.876C170.833 38.128 172.345 38.674 173.437 39.514C174.541 40.354 175.093 41.548 175.093 43.096C175.093 44.296 174.745 45.34 174.049 46.228C173.365 47.128 172.369 47.824 171.061 48.316C169.753 48.82 168.181 49.072 166.345 49.072ZM166.525 45.688C168.037 45.688 169.183 45.502 169.963 45.13C170.743 44.758 171.133 44.188 171.133 43.42C171.133 42.736 170.857 42.232 170.305 41.908C169.765 41.584 168.901 41.332 167.713 41.152L163.771 40.576C163.183 40.804 162.691 41.116 162.295 41.512C161.899 41.92 161.701 42.448 161.701 43.096C161.701 43.972 162.127 44.62 162.979 45.04C163.831 45.472 165.013 45.688 166.525 45.688ZM165.661 32.656C166.729 32.656 167.533 32.308 168.073 31.612C168.625 30.904 168.901 29.968 168.901 28.804C168.901 27.628 168.625 26.692 168.073 25.996C167.533 25.3 166.729 24.952 165.661 24.952C164.581 24.952 163.765 25.3 163.213 25.996C162.661 26.692 162.385 27.628 162.385 28.804C162.385 29.968 162.661 30.904 163.213 31.612C163.765 32.308 164.581 32.656 165.661 32.656ZM176.82 40V35.104H181.5V40H176.82Z" fill="white"/>
</svg>
