<svg width="39" height="35" viewBox="0 0 39 35" fill="none" xmlns="http://www.w3.org/2000/svg">
<g clip-path="url(#clip0_62_4603)">
<path d="M9.62134 20.0551L13.0375 35L28.6761 26.9521L9.62134 20.0551Z" fill="#6D84DC"/>
<path d="M25.7855 7.66382L9.62134 20.055L28.6761 26.9521L25.7855 7.66382Z" fill="#82A6FF"/>
<path d="M7.78149 3.57654L9.62126 20.055L25.7854 7.66383L7.78149 3.57654Z" fill="#65AED5"/>
<path d="M25.7854 0V7.66384L7.78149 3.57655L25.7854 0Z" fill="#64CFCD"/>
<path d="M0.0273438 20.6938L9.62126 20.055L7.7815 3.57654L0.0273438 20.6938Z" fill="#64CFCD"/>
<path d="M31.0412 32.3183L28.676 26.9521L13.0374 35L31.0412 32.3183Z" fill="#3F2D81"/>
<path d="M13.0374 35L0.0273438 20.6938L9.62126 20.0551L13.0374 35Z" fill="#82A6FF"/>
<path d="M25.7854 7.66382L38.4004 15.0729L28.6761 26.9521L25.7854 7.66382Z" fill="#6D84DC"/>
<path d="M25.7854 0V7.66384L38.4004 15.073L25.7854 0Z" fill="#82A6FF"/>
<path d="M28.676 26.9522L31.0412 32.3183L38.4003 15.073L28.676 26.9522Z" fill="#3C297B"/>
</g>
<defs>
<clipPath id="clip0_62_4603">
<rect width="38.373" height="35" fill="white" transform="translate(0.0273438)"/>
</clipPath>
</defs>
</svg>
