<svg width="522" height="517" viewBox="0 0 522 517" fill="none" xmlns="http://www.w3.org/2000/svg">
<path d="M297.473 516.285C295.219 516.285 292.836 515.756 290.947 514.719L3.42055 357.5C1.4456 356.422 0.307861 354.918 0.307861 353.373C0.307861 352.031 1.14507 350.831 2.66921 349.998L174.254 256.17C177.302 254.503 182.432 254.686 185.91 256.597L473.458 413.817C475.433 414.894 476.571 416.399 476.571 417.944C476.571 419.286 475.734 420.485 474.21 421.319L302.625 515.146C301.23 515.919 299.384 516.285 297.473 516.285ZM4.45096 355.812L291.999 513.032C294.811 514.577 299.212 514.76 301.595 513.459L473.179 419.631C473.78 419.306 474.51 418.737 474.51 417.944C474.51 417.151 473.737 416.216 472.428 415.504L184.88 258.264C182.068 256.719 177.667 256.536 175.263 257.837L3.67815 351.685C3.07708 352.01 2.34721 352.58 2.34721 353.373C2.34721 354.165 3.12002 355.101 4.42949 355.812H4.45096Z" fill="#42E8E0"/>
<path d="M185.803 208.413L222.146 4.18811L219.227 3.02924L223.627 0.650518C224.486 0.142244 225.688 0.162574 227.019 0.894489L517.487 159.72C519.87 161.021 521.673 164.376 521.265 166.714L484.621 372.565C484.428 373.643 483.87 374.354 483.097 374.659L478.804 377.017L478.074 373.216L478.31 373.277L189.559 215.407C187.177 214.105 185.373 210.751 185.781 208.413H185.803Z" fill="url(#paint0_linear_9_3)"/>
<path d="M515.855 165.291L520.621 163.298C521.158 164.457 521.415 165.677 521.243 166.694L484.6 372.545C484.406 373.622 483.848 374.334 483.075 374.639L478.782 376.997L478.052 373.195L478.288 373.256L463.669 365.266L515.834 165.27L515.855 165.291Z" fill="url(#paint1_linear_9_3)"/>
<path d="M185.008 217.887L475.498 376.733C477.73 377.953 479.662 377.241 480.049 375.045L516.693 169.194C517.122 166.856 515.297 163.502 512.914 162.2L222.425 3.35459C220.193 2.13473 218.261 2.84631 217.874 5.04206L181.23 210.893C180.801 213.231 182.626 216.586 185.008 217.887Z" fill="#0C0C0C"/>
<g opacity="0.51">
<path d="M221.459 7.17676L513.322 166.694L476.464 373.073L184.794 213.658L221.459 7.17676Z" fill="#453C9E"/>
</g>
<path d="M2.41161 315.333L18.2541 323.181L177.216 236.266C179.878 234.802 184.515 234.985 187.585 236.673L461.759 386.593C464.378 385.211 476.335 379.762 476.335 379.762L470.539 388.687C470.539 388.687 470.539 388.687 470.517 388.687C470.281 389.318 469.766 389.928 468.886 390.395L301.466 481.946C298.804 483.409 294.167 483.226 291.098 481.539L10.5475 328.101C9.281 327.41 8.50819 326.576 8.18619 325.722H8.16472L2.39014 315.333H2.41161Z" fill="url(#paint2_linear_9_3)"/>
<path d="M4.85883 317.814L292.407 475.033C295.563 476.761 300.307 476.944 303.033 475.46L474.617 381.633C477.344 380.148 477 377.546 473.845 375.818L186.318 218.598C183.162 216.87 178.418 216.687 175.692 218.172L4.08603 311.999C1.35974 313.483 1.70321 316.085 4.85883 317.814Z" fill="url(#paint3_linear_9_3)"/>
<path d="M4.85877 316.594L292.407 473.813C295.563 475.541 300.307 475.724 303.033 474.24L474.617 380.413C475.583 379.884 476.142 379.213 476.356 378.502C476.657 379.66 476.12 380.799 474.617 381.633L303.033 475.46C300.307 476.944 295.541 476.761 292.407 475.033L4.85877 317.814C2.81942 316.695 1.98221 315.211 2.36862 313.91C2.62622 314.866 3.44196 315.821 4.85877 316.594Z" fill="white"/>
<g opacity="0.15">
<mask id="mask0_9_3" style="mask-type:luminance" maskUnits="userSpaceOnUse" x="184" y="7" width="330" height="367">
<path d="M513.322 166.694L221.459 7.17676L184.794 213.658L476.464 373.073L513.322 166.694Z" fill="white"/>
</mask>
<g mask="url(#mask0_9_3)">
<path d="M184.665 216.545L200.507 224.393L359.469 137.478C362.131 136.014 366.768 136.197 369.838 137.885L644.012 287.805C646.631 286.423 658.588 280.974 658.588 280.974L652.792 289.899C652.792 289.899 652.792 289.899 652.771 289.899C652.534 290.529 652.019 291.139 651.139 291.607L483.719 383.157C481.057 384.621 476.421 384.438 473.351 382.751L192.801 229.313C191.534 228.622 190.761 227.788 190.439 226.934H190.418L184.643 216.545H184.665Z" fill="url(#paint4_linear_9_3)"/>
<path d="M187.112 219.025L474.66 376.245C477.816 377.973 482.56 378.156 485.287 376.672L656.871 282.844C659.597 281.36 659.254 278.758 656.098 277.03L368.571 119.81C365.416 118.082 360.672 117.899 357.945 119.383L186.361 213.211C183.635 214.695 183.978 217.297 187.134 219.025H187.112Z" fill="url(#paint5_linear_9_3)"/>
<path d="M656.098 277.03L368.571 119.81C366.553 118.712 363.849 118.245 361.466 118.448C363.226 118.57 365.008 119.038 366.446 119.81L653.994 277.03C657.15 278.758 657.493 281.36 654.767 282.844L483.183 376.672C482.217 377.2 480.972 377.505 479.662 377.627C481.745 377.79 483.827 377.485 485.308 376.672L656.892 282.844C659.619 281.36 659.275 278.758 656.12 277.03H656.098Z" fill="white"/>
<g opacity="0.5">
<path d="M337.723 191.945L328.514 186.903C327.784 186.496 326.518 186.537 325.724 186.984L315.484 192.656C314.69 193.103 314.625 193.795 315.377 194.201L324.586 199.243C325.316 199.65 326.582 199.609 327.376 199.162L337.616 193.49C338.41 193.042 338.475 192.351 337.723 191.945Z" fill="#0A090E"/>
<path d="M351.956 199.731L342.747 194.689C342.017 194.283 340.75 194.323 339.956 194.771L329.716 200.443C328.922 200.89 328.858 201.581 329.609 201.988L338.818 207.03C339.548 207.437 340.815 207.396 341.609 206.949L351.849 201.276C352.643 200.829 352.707 200.138 351.956 199.731Z" fill="#0A090E"/>
<path d="M366.189 207.518L356.979 202.476C356.249 202.069 354.983 202.11 354.189 202.557L343.949 208.23C343.155 208.677 343.09 209.368 343.842 209.775L353.051 214.817C353.781 215.224 355.047 215.183 355.842 214.736L366.081 209.063C366.875 208.616 366.94 207.925 366.189 207.518Z" fill="#0A090E"/>
<path d="M355.348 217.887L346.139 212.845C345.409 212.438 344.142 212.479 343.348 212.926L334.74 217.684C333.945 218.131 333.881 218.822 334.632 219.229L343.842 224.271C344.571 224.677 345.838 224.637 346.632 224.189L355.24 219.432C356.035 218.985 356.099 218.293 355.348 217.887Z" fill="#0A090E"/>
<path d="M369.58 225.653L360.371 220.611C359.641 220.205 358.375 220.245 357.58 220.693L348.972 225.45C348.178 225.897 348.113 226.589 348.865 226.995L358.074 232.037C358.804 232.444 360.07 232.403 360.865 231.956L369.473 227.198C370.267 226.751 370.332 226.06 369.58 225.653Z" fill="#0A090E"/>
<path d="M383.813 233.44L374.604 228.398C373.874 227.991 372.607 228.032 371.813 228.479L363.205 233.237C362.41 233.684 362.346 234.375 363.097 234.782L372.307 239.824C373.036 240.231 374.303 240.19 375.097 239.743L383.705 234.985C384.5 234.538 384.564 233.847 383.813 233.44Z" fill="#0A090E"/>
<path d="M398.045 241.227L388.836 236.185C388.106 235.778 386.84 235.819 386.045 236.266L377.437 241.024C376.643 241.471 376.579 242.162 377.33 242.569L386.539 247.611C387.269 248.017 388.536 247.977 389.33 247.529L397.938 242.772C398.732 242.325 398.797 241.633 398.045 241.227Z" fill="#0A090E"/>
<path d="M412.278 249.014L403.069 243.972C402.339 243.565 401.072 243.606 400.278 244.053L391.67 248.81C390.875 249.258 390.811 249.949 391.562 250.356L400.772 255.398C401.501 255.804 402.768 255.764 403.562 255.316L412.17 250.559C412.965 250.112 413.029 249.42 412.278 249.014Z" fill="#0A090E"/>
<path d="M426.51 256.8L417.301 251.758C416.571 251.352 415.305 251.392 414.51 251.84L405.902 256.597C405.108 257.044 405.043 257.736 405.795 258.142L415.004 263.184C415.734 263.591 417 263.55 417.795 263.103L426.403 258.346C427.197 257.898 427.262 257.207 426.51 256.8Z" fill="#0A090E"/>
<path d="M440.743 264.587L431.534 259.545C430.804 259.138 429.537 259.179 428.743 259.626L420.135 264.384C419.34 264.831 419.276 265.522 420.027 265.929L429.237 270.971C429.966 271.378 431.233 271.337 432.027 270.89L440.635 266.132C441.43 265.685 441.494 264.994 440.743 264.587Z" fill="#0A090E"/>
<path d="M454.997 272.354L445.788 267.311C445.058 266.905 443.791 266.946 442.997 267.393L434.389 272.15C433.594 272.598 433.53 273.289 434.281 273.695L443.491 278.737C444.22 279.144 445.487 279.103 446.281 278.656L454.889 273.899C455.684 273.451 455.748 272.76 454.997 272.354Z" fill="#0A090E"/>
<path d="M469.229 280.14L460.02 275.098C459.29 274.692 458.024 274.732 457.229 275.18L448.621 279.937C447.827 280.384 447.762 281.075 448.514 281.482L457.723 286.524C458.453 286.931 459.72 286.89 460.514 286.443L469.122 281.685C469.916 281.238 469.981 280.547 469.229 280.14Z" fill="#0A090E"/>
<path d="M483.462 287.927L474.253 282.885C473.523 282.478 472.256 282.519 471.462 282.966L462.854 287.724C462.059 288.171 461.995 288.862 462.746 289.269L471.956 294.311C472.686 294.718 473.952 294.677 474.746 294.23L483.355 289.472C484.149 289.025 484.213 288.334 483.462 287.927Z" fill="#0A090E"/>
<path d="M349.423 228.988L340.214 223.945C339.484 223.539 338.217 223.58 337.423 224.027L328.815 228.784C328.021 229.232 327.956 229.923 328.707 230.329L337.917 235.371C338.647 235.778 339.913 235.737 340.707 235.29L349.316 230.533C350.11 230.085 350.174 229.394 349.423 228.988Z" fill="#0A090E"/>
<path d="M334.976 221.099L325.766 216.057C325.037 215.65 323.77 215.691 322.976 216.138L314.368 220.896C313.573 221.343 313.509 222.034 314.26 222.441L323.47 227.483C324.199 227.89 325.466 227.849 326.26 227.402L334.868 222.644C335.663 222.197 335.727 221.506 334.976 221.099Z" fill="#0A090E"/>
<path d="M320.507 213.17L300.65 202.313C299.92 201.907 298.654 201.947 297.86 202.395L289.251 207.152C288.457 207.599 288.393 208.291 289.144 208.697L309.001 219.554C309.731 219.961 310.997 219.92 311.792 219.473L320.4 214.715C321.194 214.268 321.258 213.577 320.507 213.17Z" fill="#0A090E"/>
<path d="M303.72 218.355L287.62 209.551C286.89 209.145 285.623 209.185 284.829 209.633L276.221 214.39C275.427 214.837 275.362 215.529 276.114 215.935L292.214 224.738C292.944 225.145 294.21 225.104 295.005 224.657L303.613 219.9C304.407 219.452 304.471 218.761 303.72 218.355Z" fill="#0A090E"/>
<path d="M363.655 236.774L354.446 231.732C353.716 231.326 352.45 231.366 351.655 231.814L343.047 236.571C342.253 237.018 342.189 237.71 342.94 238.116L352.149 243.158C352.879 243.565 354.146 243.524 354.94 243.077L363.548 238.32C364.342 237.872 364.407 237.181 363.655 236.774Z" fill="#0A090E"/>
<path d="M377.888 244.561L368.679 239.519C367.949 239.112 366.682 239.153 365.888 239.6L357.28 244.358C356.486 244.805 356.421 245.496 357.172 245.903L366.382 250.945C367.112 251.352 368.378 251.311 369.172 250.864L377.781 246.106C378.575 245.659 378.639 244.968 377.888 244.561Z" fill="#0A090E"/>
<path d="M392.12 252.348L382.911 247.306C382.181 246.899 380.915 246.94 380.12 247.387L371.512 252.145C370.718 252.592 370.654 253.283 371.405 253.69L380.614 258.732C381.344 259.138 382.611 259.098 383.405 258.651L392.013 253.893C392.807 253.446 392.872 252.755 392.12 252.348Z" fill="#0A090E"/>
<path d="M406.353 260.114L397.144 255.072C396.414 254.666 395.147 254.706 394.353 255.154L385.745 259.911C384.951 260.358 384.886 261.05 385.637 261.456L394.847 266.498C395.577 266.905 396.843 266.864 397.637 266.417L406.246 261.66C407.04 261.212 407.104 260.521 406.353 260.114Z" fill="#0A090E"/>
<path d="M420.585 267.901L411.376 262.859C410.646 262.452 409.38 262.493 408.586 262.94L399.977 267.698C399.183 268.145 399.119 268.836 399.87 269.243L409.079 274.285C409.809 274.692 411.076 274.651 411.87 274.204L420.478 269.446C421.272 268.999 421.337 268.308 420.585 267.901Z" fill="#0A090E"/>
<path d="M434.818 275.688L425.609 270.646C424.879 270.239 423.612 270.28 422.818 270.727L414.21 275.485C413.416 275.932 413.351 276.623 414.102 277.03L423.312 282.072C424.042 282.478 425.308 282.438 426.102 281.99L434.711 277.233C435.505 276.786 435.569 276.095 434.818 275.688Z" fill="#0A090E"/>
<path d="M449.05 283.475L439.841 278.433C439.111 278.026 437.845 278.067 437.05 278.514L428.442 283.271C427.648 283.719 427.584 284.41 428.335 284.816L437.544 289.859C438.274 290.265 439.541 290.225 440.335 289.777L448.943 285.02C449.737 284.573 449.802 283.881 449.05 283.475Z" fill="#0A090E"/>
<path d="M463.283 291.261L454.074 286.219C453.344 285.813 452.077 285.853 451.283 286.301L442.675 291.058C441.881 291.505 441.816 292.197 442.568 292.603L451.777 297.645C452.507 298.052 453.773 298.011 454.567 297.564L463.176 292.807C463.97 292.359 464.034 291.668 463.283 291.261Z" fill="#0A090E"/>
<path d="M477.516 299.028L468.306 293.986C467.576 293.579 466.31 293.62 465.516 294.067L456.907 298.825C456.113 299.272 456.049 299.963 456.8 300.37L466.009 305.412C466.739 305.818 468.006 305.778 468.8 305.33L477.408 300.573C478.202 300.126 478.267 299.434 477.516 299.028Z" fill="#0A090E"/>
<path d="M502.825 312.873L482.711 301.874C481.981 301.468 480.714 301.508 479.92 301.956L471.312 306.713C470.517 307.16 470.453 307.851 471.204 308.258L491.319 319.257C492.049 319.664 493.315 319.623 494.109 319.176L502.718 314.418C503.512 313.971 503.576 313.28 502.825 312.873Z" fill="#0A090E"/>
<path d="M476.743 327.308L459.762 318.017C459.033 317.61 457.766 317.651 456.972 318.098L448.364 322.856C447.569 323.303 447.505 323.994 448.256 324.401L465.237 333.692C465.966 334.099 467.233 334.058 468.027 333.611L476.635 328.853C477.43 328.406 477.494 327.715 476.743 327.308Z" fill="#0A090E"/>
<path d="M361.68 250.051L352.471 245.008C351.741 244.602 350.475 244.643 349.681 245.09L341.072 249.847C340.278 250.295 340.214 250.986 340.965 251.392L350.174 256.434C350.904 256.841 352.171 256.8 352.965 256.353L361.573 251.596C362.367 251.148 362.432 250.457 361.68 250.051Z" fill="#0A090E"/>
<path d="M347.083 242.06L337.874 237.018C337.144 236.612 335.877 236.652 335.083 237.1L326.475 241.857C325.681 242.304 325.616 242.996 326.368 243.402L335.577 248.444C336.307 248.851 337.573 248.81 338.368 248.363L346.976 243.606C347.77 243.158 347.834 242.467 347.083 242.06Z" fill="#0A090E"/>
<path d="M332.507 234.091L323.298 229.049C322.568 228.642 321.301 228.683 320.507 229.13L311.899 233.887C311.105 234.335 311.04 235.026 311.792 235.433L321.001 240.475C321.731 240.881 322.997 240.841 323.792 240.393L332.4 235.636C333.194 235.189 333.258 234.497 332.507 234.091Z" fill="#0A090E"/>
<path d="M317.91 226.121L308.7 221.079C307.97 220.672 306.704 220.713 305.91 221.16L297.301 225.918C296.507 226.365 296.443 227.056 297.194 227.463L306.403 232.505C307.133 232.912 308.4 232.871 309.194 232.424L317.802 227.666C318.597 227.219 318.661 226.528 317.91 226.121Z" fill="#0A090E"/>
<path d="M375.913 257.837L366.704 252.795C365.974 252.389 364.707 252.429 363.913 252.877L355.305 257.634C354.511 258.081 354.446 258.773 355.198 259.179L364.407 264.221C365.137 264.628 366.403 264.587 367.197 264.14L375.806 259.382C376.6 258.935 376.664 258.244 375.913 257.837Z" fill="#0A090E"/>
<path d="M390.146 265.604L380.936 260.562C380.206 260.155 378.94 260.196 378.146 260.643L369.537 265.4C368.743 265.848 368.679 266.539 369.43 266.946L378.639 271.988C379.369 272.394 380.636 272.354 381.43 271.906L390.038 267.149C390.832 266.702 390.897 266.01 390.146 265.604Z" fill="#0A090E"/>
<path d="M404.378 273.391L395.169 268.348C394.439 267.942 393.172 267.982 392.378 268.43L383.77 273.187C382.976 273.634 382.911 274.326 383.663 274.732L392.872 279.774C393.602 280.181 394.868 280.14 395.662 279.693L404.271 274.936C405.065 274.488 405.129 273.797 404.378 273.391Z" fill="#0A090E"/>
<path d="M418.611 281.177L409.401 276.135C408.671 275.729 407.405 275.769 406.611 276.217L398.002 280.974C397.208 281.421 397.144 282.113 397.895 282.519L407.104 287.561C407.834 287.968 409.101 287.927 409.895 287.48L418.503 282.722C419.297 282.275 419.362 281.584 418.611 281.177Z" fill="#0A090E"/>
<path d="M432.843 288.964L423.634 283.922C422.904 283.515 421.637 283.556 420.843 284.003L412.235 288.761C411.441 289.208 411.376 289.899 412.128 290.306L421.337 295.348C422.067 295.755 423.333 295.714 424.128 295.267L432.736 290.509C433.53 290.062 433.594 289.371 432.843 288.964Z" fill="#0A090E"/>
<path d="M447.076 296.751L437.866 291.709C437.136 291.302 435.87 291.343 435.076 291.79L426.467 296.547C425.673 296.995 425.609 297.686 426.36 298.093L435.569 303.135C436.299 303.541 437.566 303.501 438.36 303.053L446.968 298.296C447.763 297.849 447.827 297.157 447.076 296.751Z" fill="#0A090E"/>
<path d="M461.308 304.517L452.099 299.475C451.369 299.069 450.102 299.109 449.308 299.556L440.7 304.314C439.906 304.761 439.841 305.452 440.593 305.859L449.802 310.901C450.532 311.308 451.798 311.267 452.593 310.82L461.201 306.062C461.995 305.615 462.059 304.924 461.308 304.517Z" fill="#0A090E"/>
<path d="M475.541 312.304L466.331 307.262C465.601 306.855 464.335 306.896 463.541 307.343L454.932 312.101C454.138 312.548 454.074 313.239 454.825 313.646L464.034 318.688C464.764 319.095 466.031 319.054 466.825 318.607L475.433 313.849C476.228 313.402 476.292 312.711 475.541 312.304Z" fill="#0A090E"/>
<path d="M489.773 320.091L480.564 315.049C479.834 314.642 478.567 314.683 477.773 315.13L469.165 319.887C468.371 320.335 468.306 321.026 469.058 321.433L478.267 326.475C478.997 326.881 480.263 326.841 481.058 326.393L489.666 321.636C490.46 321.189 490.524 320.497 489.773 320.091Z" fill="#0A090E"/>
<path d="M327.291 245.598L318.081 240.556C317.351 240.149 316.085 240.19 315.291 240.637L306.682 245.395C305.888 245.842 305.824 246.533 306.575 246.94L315.784 251.982C316.514 252.389 317.781 252.348 318.575 251.901L327.183 247.143C327.978 246.696 328.042 246.005 327.291 245.598Z" fill="#0A090E"/>
<path d="M313.123 237.852L303.913 232.81C303.183 232.403 301.917 232.444 301.123 232.891L292.514 237.649C291.72 238.096 291.656 238.787 292.407 239.194L301.616 244.236C302.346 244.642 303.613 244.602 304.407 244.155L313.015 239.397C313.809 238.95 313.874 238.259 313.123 237.852Z" fill="#0A090E"/>
<path d="M298.954 230.106L289.745 225.064C289.015 224.657 287.749 224.698 286.954 225.145L278.346 229.903C277.552 230.35 277.488 231.041 278.239 231.448L287.448 236.49C288.178 236.896 289.445 236.856 290.239 236.408L298.847 231.651C299.641 231.204 299.706 230.512 298.954 230.106Z" fill="#0A090E"/>
<path d="M284.786 222.36L275.577 217.318C274.847 216.911 273.581 216.952 272.786 217.399L264.178 222.156C263.384 222.604 263.319 223.295 264.071 223.702L273.28 228.744C274.01 229.15 275.277 229.11 276.071 228.662L284.679 223.905C285.473 223.458 285.538 222.766 284.786 222.36Z" fill="#0A090E"/>
<path d="M271.09 229.943L261.881 224.901C261.151 224.494 259.885 224.535 259.091 224.982L256.257 226.548C255.463 226.995 255.398 227.686 256.15 228.093L265.359 233.135C266.089 233.542 267.355 233.501 268.149 233.054L270.983 231.488C271.777 231.041 271.842 230.35 271.09 229.943Z" fill="#0A090E"/>
<path d="M289.573 240.048L280.364 235.006C279.634 234.599 278.368 234.64 277.573 235.087L274.74 236.652C273.946 237.1 273.881 237.791 274.632 238.198L283.842 243.24C284.572 243.646 285.838 243.606 286.632 243.158L289.466 241.593C290.26 241.146 290.325 240.454 289.573 240.048Z" fill="#0A090E"/>
<path d="M303.677 247.753L294.468 242.711C293.738 242.304 292.471 242.345 291.677 242.792L288.844 244.358C288.049 244.805 287.985 245.496 288.736 245.903L297.945 250.945C298.675 251.352 299.942 251.311 300.736 250.864L303.57 249.298C304.364 248.851 304.428 248.16 303.677 247.753Z" fill="#0A090E"/>
<path d="M317.781 255.479L308.572 250.437C307.842 250.03 306.575 250.071 305.781 250.518L302.947 252.084C302.153 252.531 302.089 253.222 302.84 253.629L312.049 258.671C312.779 259.077 314.046 259.037 314.84 258.59L317.673 257.024C318.468 256.577 318.532 255.886 317.781 255.479Z" fill="#0A090E"/>
<path d="M331.885 263.184L322.675 258.142C321.945 257.736 320.679 257.776 319.885 258.224L317.051 259.789C316.257 260.236 316.192 260.928 316.944 261.334L326.153 266.376C326.883 266.783 328.149 266.742 328.944 266.295L331.777 264.73C332.571 264.282 332.636 263.591 331.885 263.184Z" fill="#0A090E"/>
<path d="M410.625 306.245L401.416 301.203C400.686 300.797 399.419 300.837 398.625 301.285L395.791 302.85C394.997 303.297 394.933 303.989 395.684 304.395L404.893 309.437C405.623 309.844 406.89 309.803 407.684 309.356L410.518 307.79C411.312 307.343 411.376 306.652 410.625 306.245Z" fill="#0A090E"/>
<path d="M424.729 313.951L415.519 308.909C414.789 308.502 413.523 308.543 412.729 308.99L409.895 310.555C409.101 311.003 409.036 311.694 409.788 312.101L418.997 317.143C419.727 317.549 420.993 317.509 421.788 317.061L424.621 315.496C425.416 315.049 425.48 314.357 424.729 313.951Z" fill="#0A090E"/>
<path d="M438.832 321.656L429.623 316.614C428.893 316.207 427.627 316.248 426.832 316.695L423.999 318.261C423.204 318.708 423.14 319.399 423.891 319.806L433.101 324.848C433.831 325.255 435.097 325.214 435.891 324.767L438.725 323.201C439.519 322.754 439.584 322.063 438.832 321.656Z" fill="#0A090E"/>
<path d="M452.936 329.382L443.727 324.34C442.997 323.933 441.73 323.974 440.936 324.421L438.102 325.987C437.308 326.434 437.244 327.125 437.995 327.532L447.204 332.574C447.934 332.981 449.201 332.94 449.995 332.493L452.829 330.927C453.623 330.48 453.687 329.789 452.936 329.382Z" fill="#0A090E"/>
<path d="M341.523 253.364L332.314 248.322C331.584 247.916 330.317 247.956 329.523 248.404L320.915 253.161C320.121 253.608 320.056 254.3 320.808 254.706L330.017 259.748C330.747 260.155 332.013 260.114 332.808 259.667L341.416 254.91C342.21 254.462 342.274 253.771 341.523 253.364Z" fill="#0A090E"/>
<path d="M355.756 261.151L346.546 256.109C345.816 255.703 344.55 255.743 343.756 256.191L335.147 260.948C334.353 261.395 334.289 262.086 335.04 262.493L344.249 267.535C344.979 267.942 346.246 267.901 347.04 267.454L355.648 262.696C356.443 262.249 356.507 261.558 355.756 261.151Z" fill="#0A090E"/>
<path d="M369.988 268.938L360.779 263.896C360.049 263.489 358.782 263.53 357.988 263.977L349.38 268.735C348.586 269.182 348.521 269.873 349.273 270.28L358.482 275.322C359.212 275.729 360.478 275.688 361.273 275.241L369.881 270.483C370.675 270.036 370.74 269.345 369.988 268.938Z" fill="#0A090E"/>
<path d="M384.221 276.725L375.011 271.683C374.282 271.276 373.015 271.317 372.221 271.764L363.613 276.521C362.818 276.969 362.754 277.66 363.505 278.067L372.714 283.109C373.444 283.515 374.711 283.475 375.505 283.027L384.113 278.27C384.908 277.823 384.972 277.131 384.221 276.725Z" fill="#0A090E"/>
<path d="M398.453 284.511L389.244 279.469C388.514 279.063 387.248 279.103 386.453 279.551L377.845 284.308C377.051 284.755 376.986 285.447 377.738 285.853L386.947 290.895C387.677 291.302 388.943 291.261 389.738 290.814L398.346 286.057C399.14 285.609 399.205 284.918 398.453 284.511Z" fill="#0A090E"/>
<path d="M412.686 292.278L403.476 287.236C402.747 286.829 401.48 286.87 400.686 287.317L392.078 292.075C391.283 292.522 391.219 293.213 391.97 293.62L401.179 298.662C401.909 299.069 403.176 299.028 403.97 298.581L412.578 293.823C413.373 293.376 413.437 292.685 412.686 292.278Z" fill="#0A090E"/>
<path d="M426.918 300.065L417.709 295.023C416.979 294.616 415.713 294.657 414.918 295.104L406.31 299.861C405.516 300.309 405.451 301 406.203 301.407L415.412 306.449C416.142 306.855 417.408 306.815 418.203 306.367L426.811 301.61C427.605 301.163 427.67 300.471 426.918 300.065Z" fill="#0A090E"/>
<path d="M441.151 307.851L431.941 302.809C431.212 302.403 429.945 302.443 429.151 302.891L420.543 307.648C419.748 308.095 419.684 308.787 420.435 309.193L429.644 314.235C430.374 314.642 431.641 314.601 432.435 314.154L441.043 309.397C441.838 308.949 441.902 308.258 441.151 307.851Z" fill="#0A090E"/>
<path d="M455.383 315.638L446.174 310.596C445.444 310.19 444.178 310.23 443.383 310.677L434.775 315.435C433.981 315.882 433.916 316.573 434.668 316.98L443.877 322.022C444.607 322.429 445.873 322.388 446.668 321.941L455.276 317.183C456.07 316.736 456.135 316.045 455.383 315.638Z" fill="#0A090E"/>
<path d="M340.836 209.958L313.702 195.116C312.972 194.71 311.706 194.75 310.911 195.198L302.303 199.955C301.509 200.402 301.445 201.094 302.196 201.5L329.33 216.342C330.06 216.748 331.326 216.708 332.121 216.26L340.729 211.503C341.523 211.056 341.588 210.364 340.836 209.958Z" fill="#0A090E"/>
<path d="M515.705 305.554L488.571 290.712C487.841 290.306 486.575 290.346 485.78 290.794L477.172 295.551C476.378 295.998 476.313 296.69 477.065 297.096L504.199 311.938C504.929 312.345 506.195 312.304 506.989 311.857L515.598 307.099C516.392 306.652 516.456 305.961 515.705 305.554Z" fill="#0A090E"/>
<path d="M489.301 274.854L480.092 269.812C479.362 269.406 478.095 269.446 477.301 269.894L467.061 275.566C466.267 276.013 466.203 276.704 466.954 277.111L476.163 282.153C476.893 282.56 478.16 282.519 478.954 282.072L489.194 276.399C489.988 275.952 490.052 275.261 489.301 274.854Z" fill="#0A090E"/>
<path d="M385.938 218.314L371.19 210.263C370.46 209.856 369.194 209.897 368.4 210.344L358.16 216.016C357.366 216.464 357.301 217.155 358.053 217.562L372.8 225.613C373.53 226.019 374.797 225.979 375.591 225.531L385.831 219.859C386.625 219.412 386.689 218.72 385.938 218.314Z" fill="#0A090E"/>
<path d="M475.605 267.352L460.857 259.301C460.127 258.894 458.861 258.935 458.067 259.382L447.827 265.055C447.033 265.502 446.968 266.193 447.72 266.6L462.467 274.651C463.197 275.058 464.464 275.017 465.258 274.57L475.498 268.897C476.292 268.45 476.356 267.759 475.605 267.352Z" fill="#0A090E"/>
<path d="M406.482 229.557L391.734 221.506C391.004 221.099 389.738 221.14 388.943 221.587L378.704 227.259C377.909 227.707 377.845 228.398 378.596 228.805L393.344 236.856C394.074 237.262 395.34 237.222 396.135 236.774L406.374 231.102C407.169 230.655 407.233 229.963 406.482 229.557Z" fill="#0A090E"/>
<path d="M378.682 228.825L442.761 263.876C443.555 264.303 444.8 264.323 445.551 263.916L456.006 258.142C456.757 257.736 456.714 257.044 455.92 256.597L391.841 221.547L378.682 228.825Z" fill="#0A090E"/>
<path d="M501.172 288.578L511.433 294.189C512.034 294.514 513.065 294.494 513.73 294.128L517.916 291.81C518.582 291.444 518.625 290.875 518.002 290.55L507.741 284.938C507.14 284.613 506.109 284.634 505.444 284.999L501.258 287.317C500.592 287.683 500.549 288.252 501.172 288.578Z" fill="#0A090E"/>
<path d="M486.939 280.791L497.201 286.402C497.802 286.728 498.832 286.707 499.498 286.341L503.684 284.024C504.349 283.658 504.392 283.088 503.769 282.763L493.508 277.152C492.907 276.826 491.877 276.847 491.211 277.213L487.025 279.53C486.36 279.896 486.317 280.466 486.939 280.791Z" fill="#0A090E"/>
<path d="M493.766 292.664L504.027 298.276C504.628 298.601 505.659 298.581 506.324 298.215L510.51 295.897C511.176 295.531 511.218 294.962 510.596 294.636L500.335 289.025C499.734 288.7 498.703 288.72 498.038 289.086L493.852 291.404C493.186 291.77 493.143 292.339 493.766 292.664Z" fill="#0A090E"/>
</g>
</g>
</g>
<g opacity="0.8">
<path d="M137.116 300.39L127.993 295.389C127.263 294.982 127.349 294.291 128.207 293.823L138.984 287.927C139.821 287.459 141.109 287.419 141.839 287.805L150.962 292.786C151.692 293.193 151.606 293.884 150.747 294.352L139.971 300.248C139.134 300.715 137.846 300.756 137.116 300.37V300.39Z" fill="#24126A"/>
<path d="M151.22 308.095L142.096 303.114C141.366 302.708 141.452 302.016 142.311 301.549L153.087 295.653C153.925 295.185 155.213 295.145 155.942 295.531L165.066 300.512C165.796 300.919 165.71 301.61 164.851 302.077L154.075 307.973C153.238 308.441 151.95 308.482 151.22 308.095Z" fill="#24126A"/>
<path d="M165.323 315.821L156.2 310.84C155.47 310.433 155.556 309.742 156.415 309.275L167.191 303.379C168.028 302.911 169.316 302.87 170.046 303.257L179.17 308.238C179.899 308.644 179.814 309.336 178.955 309.803L168.179 315.699C167.341 316.167 166.053 316.207 165.323 315.821Z" fill="#24126A"/>
<path d="M184.815 309.437L175.692 304.456C174.962 304.05 175.048 303.358 175.907 302.891L184.944 297.95C185.781 297.483 187.069 297.442 187.799 297.828L196.923 302.809C197.652 303.216 197.567 303.907 196.708 304.375L187.67 309.315C186.833 309.783 185.545 309.824 184.815 309.437Z" fill="#24126A"/>
<path d="M198.919 317.163L189.796 312.162C189.066 311.755 189.152 311.064 190.01 310.596L199.048 305.656C199.885 305.188 201.173 305.147 201.903 305.534L211.026 310.515C211.756 310.921 211.67 311.613 210.812 312.08L201.774 317.021C200.937 317.488 199.649 317.529 198.919 317.143V317.163Z" fill="#24126A"/>
<path d="M213.001 324.868L203.878 319.867C203.148 319.46 203.234 318.769 204.093 318.302L213.13 313.361C213.967 312.894 215.255 312.853 215.985 313.239L225.109 318.22C225.838 318.627 225.753 319.318 224.894 319.786L215.856 324.726C215.019 325.194 213.731 325.234 213.001 324.848V324.868Z" fill="#24126A"/>
<path d="M227.105 332.574L217.982 327.593C217.252 327.186 217.338 326.495 218.196 326.027L227.234 321.087C228.071 320.619 229.359 320.579 230.089 320.965L239.212 325.946C239.942 326.353 239.856 327.044 238.998 327.511L229.96 332.452C229.123 332.92 227.835 332.96 227.105 332.574Z" fill="#24126A"/>
<path d="M241.209 340.279L232.085 335.278C231.355 334.871 231.441 334.18 232.3 333.712L241.337 328.772C242.175 328.304 243.463 328.264 244.193 328.65L253.316 333.631C254.046 334.038 253.96 334.729 253.101 335.197L244.064 340.137C243.227 340.605 241.939 340.645 241.209 340.259V340.279Z" fill="#24126A"/>
<path d="M255.291 347.985L246.167 342.983C245.438 342.577 245.523 341.886 246.382 341.418L255.42 336.477C256.257 336.01 257.545 335.969 258.275 336.356L267.398 341.337C268.128 341.743 268.042 342.434 267.184 342.902L258.146 347.842C257.309 348.31 256.021 348.351 255.291 347.964V347.985Z" fill="#24126A"/>
<path d="M269.395 355.69L260.271 350.709C259.541 350.302 259.627 349.611 260.486 349.144L269.523 344.203C270.361 343.736 271.649 343.695 272.379 344.081L281.502 349.062C282.232 349.469 282.146 350.16 281.287 350.628L272.25 355.568C271.413 356.036 270.125 356.076 269.395 355.69Z" fill="#24126A"/>
<path d="M283.498 363.396L274.375 358.394C273.645 357.988 273.731 357.296 274.59 356.829L283.627 351.888C284.464 351.421 285.752 351.38 286.482 351.766L295.606 356.768C296.335 357.174 296.25 357.866 295.391 358.333L286.353 363.274C285.516 363.741 284.228 363.782 283.498 363.396Z" fill="#24126A"/>
<path d="M297.581 371.101L288.457 366.12C287.727 365.713 287.813 365.022 288.672 364.555L297.709 359.614C298.547 359.146 299.835 359.106 300.564 359.492L309.688 364.473C310.418 364.88 310.332 365.571 309.473 366.039L300.436 370.979C299.598 371.447 298.31 371.487 297.581 371.101Z" fill="#24126A"/>
<path d="M311.684 378.827L302.561 373.846C301.831 373.439 301.917 372.748 302.776 372.28L311.813 367.34C312.65 366.872 313.938 366.832 314.668 367.218L323.792 372.219C324.521 372.626 324.436 373.317 323.577 373.785L314.539 378.725C313.702 379.193 312.414 379.234 311.684 378.847V378.827Z" fill="#24126A"/>
<path d="M205.574 305.798L196.45 300.817C195.72 300.41 195.806 299.719 196.665 299.251L205.703 294.311C206.54 293.843 207.828 293.803 208.558 294.189L217.681 299.17C218.411 299.577 218.325 300.268 217.466 300.736L208.429 305.676C207.592 306.144 206.304 306.184 205.574 305.798Z" fill="#24126A"/>
<path d="M191.277 297.971L182.153 292.989C181.424 292.583 181.509 291.892 182.368 291.424L191.406 286.484C192.243 286.016 193.531 285.975 194.261 286.362L203.384 291.343C204.114 291.749 204.028 292.441 203.169 292.908L194.132 297.849C193.295 298.316 192.007 298.357 191.277 297.971Z" fill="#24126A"/>
<path d="M176.937 290.143L157.273 279.388C156.543 278.981 156.629 278.29 157.488 277.823L166.526 272.882C167.363 272.415 168.651 272.374 169.381 272.76L189.044 283.515C189.774 283.922 189.688 284.613 188.83 285.081L179.792 290.021C178.955 290.489 177.667 290.529 176.937 290.143Z" fill="#24126A"/>
<path d="M186.962 280.608L171.012 271.886C170.282 271.479 170.368 270.788 171.227 270.321L180.264 265.38C181.102 264.912 182.39 264.872 183.119 265.258L199.069 273.98C199.799 274.387 199.713 275.078 198.855 275.546L189.817 280.486C188.98 280.954 187.692 280.994 186.962 280.608Z" fill="#24126A"/>
<path d="M219.677 313.503L210.554 308.522C209.824 308.116 209.91 307.424 210.769 306.957L219.806 302.016C220.643 301.549 221.931 301.508 222.661 301.894L231.785 306.876C232.515 307.282 232.429 307.973 231.57 308.441L222.533 313.381C221.695 313.849 220.407 313.89 219.677 313.503Z" fill="#24126A"/>
<path d="M233.781 321.209L224.658 316.228C223.928 315.821 224.014 315.13 224.872 314.662L233.91 309.722C234.747 309.254 236.035 309.214 236.765 309.6L245.888 314.581C246.618 314.988 246.532 315.679 245.674 316.146L236.636 321.087C235.799 321.554 234.511 321.595 233.781 321.209Z" fill="#24126A"/>
<path d="M247.863 328.914L238.74 323.933C238.01 323.527 238.096 322.835 238.955 322.368L247.992 317.427C248.829 316.96 250.117 316.919 250.847 317.305L259.971 322.286C260.701 322.693 260.615 323.384 259.756 323.852L250.718 328.792C249.881 329.26 248.593 329.301 247.863 328.914Z" fill="#24126A"/>
<path d="M261.967 336.62L252.844 331.639C252.114 331.232 252.2 330.541 253.058 330.073L262.096 325.133C262.933 324.665 264.221 324.624 264.951 325.011L274.074 329.992C274.804 330.398 274.718 331.09 273.86 331.557L264.822 336.498C263.985 336.965 262.697 337.006 261.967 336.62Z" fill="#24126A"/>
<path d="M276.071 344.346L266.947 339.364C266.217 338.958 266.303 338.267 267.162 337.799L276.2 332.859C277.037 332.391 278.325 332.35 279.055 332.737L288.178 337.718C288.908 338.124 288.822 338.816 287.963 339.283L278.926 344.224C278.089 344.691 276.801 344.732 276.071 344.346Z" fill="#24126A"/>
<path d="M290.153 352.051L281.03 347.05C280.3 346.643 280.386 345.952 281.244 345.484L290.282 340.544C291.119 340.076 292.407 340.035 293.137 340.422L302.26 345.403C302.99 345.809 302.904 346.501 302.046 346.968L293.008 351.909C292.171 352.376 290.883 352.417 290.153 352.031V352.051Z" fill="#24126A"/>
<path d="M304.257 359.756L295.133 354.755C294.403 354.348 294.489 353.657 295.348 353.19L304.386 348.249C305.223 347.781 306.511 347.741 307.241 348.127L316.364 353.108C317.094 353.515 317.008 354.206 316.149 354.674L307.112 359.614C306.275 360.082 304.987 360.122 304.257 359.736V359.756Z" fill="#24126A"/>
<path d="M318.36 367.462L309.237 362.46C308.507 362.054 308.593 361.363 309.452 360.895L318.489 355.955C319.326 355.487 320.615 355.446 321.344 355.833L330.468 360.814C331.198 361.22 331.112 361.912 330.253 362.379L321.216 367.32C320.378 367.787 319.09 367.828 318.36 367.442V367.462Z" fill="#24126A"/>
<path d="M332.443 375.167L323.319 370.166C322.589 369.759 322.675 369.068 323.534 368.6L332.571 363.66C333.409 363.192 334.697 363.152 335.427 363.538L344.55 368.519C345.28 368.926 345.194 369.617 344.335 370.085L335.298 375.025C334.461 375.493 333.173 375.533 332.443 375.147V375.167Z" fill="#24126A"/>
<path d="M357.516 388.87L337.595 377.973C336.865 377.566 336.951 376.875 337.809 376.408L346.847 371.467C347.684 371 348.972 370.959 349.702 371.345L369.623 382.243C370.353 382.649 370.267 383.34 369.409 383.808L360.371 388.748C359.534 389.216 358.246 389.257 357.516 388.87Z" fill="#24126A"/>
<path d="M384.951 373.866L368.142 364.677C367.412 364.27 367.498 363.579 368.357 363.111L377.394 358.171C378.231 357.703 379.519 357.662 380.249 358.049L397.058 367.238C397.788 367.645 397.702 368.336 396.843 368.804L387.806 373.744C386.968 374.212 385.68 374.252 384.951 373.866Z" fill="#24126A"/>
<path d="M244.364 311.999L235.241 307.018C234.511 306.611 234.597 305.92 235.456 305.452L244.493 300.512C245.33 300.044 246.618 300.004 247.348 300.39L256.472 305.371C257.201 305.778 257.116 306.469 256.257 306.937L247.219 311.877C246.382 312.345 245.094 312.385 244.364 311.999Z" fill="#24126A"/>
<path d="M229.917 304.09L220.794 299.109C220.064 298.703 220.15 298.011 221.008 297.544L230.046 292.603C230.883 292.136 232.171 292.095 232.901 292.481L242.024 297.483C242.754 297.889 242.668 298.581 241.81 299.048L232.772 303.989C231.935 304.456 230.647 304.497 229.917 304.111V304.09Z" fill="#24126A"/>
<path d="M215.47 296.202L206.347 291.221C205.617 290.814 205.703 290.123 206.561 289.655L215.599 284.715C216.436 284.247 217.724 284.207 218.454 284.593L227.577 289.574C228.307 289.981 228.221 290.672 227.363 291.139L218.325 296.08C217.488 296.547 216.2 296.588 215.47 296.202Z" fill="#24126A"/>
<path d="M201.023 288.293L191.899 283.312C191.169 282.905 191.255 282.214 192.114 281.747L201.152 276.806C201.989 276.338 203.277 276.298 204.007 276.684L213.13 281.665C213.86 282.072 213.774 282.763 212.915 283.231L203.878 288.171C203.041 288.639 201.753 288.679 201.023 288.293Z" fill="#24126A"/>
<path d="M258.468 319.704L249.345 314.723C248.615 314.317 248.701 313.626 249.559 313.158L258.597 308.217C259.434 307.75 260.722 307.709 261.452 308.095L270.575 313.077C271.305 313.483 271.219 314.174 270.361 314.642L261.323 319.583C260.486 320.05 259.198 320.091 258.468 319.704Z" fill="#24126A"/>
<path d="M272.55 327.41L263.427 322.429C262.697 322.022 262.783 321.331 263.641 320.863L272.679 315.923C273.516 315.455 274.804 315.415 275.534 315.801L284.658 320.782C285.387 321.189 285.302 321.88 284.443 322.348L275.405 327.288C274.568 327.756 273.28 327.796 272.55 327.41Z" fill="#24126A"/>
<path d="M286.654 335.115L277.531 330.134C276.801 329.728 276.887 329.036 277.745 328.569L286.783 323.628C287.62 323.161 288.908 323.12 289.638 323.506L298.761 328.487C299.491 328.894 299.405 329.585 298.547 330.053L289.509 334.993C288.672 335.461 287.384 335.502 286.654 335.115Z" fill="#24126A"/>
<path d="M300.758 342.821L291.634 337.84C290.904 337.433 290.99 336.742 291.849 336.274L300.886 331.334C301.724 330.866 303.012 330.825 303.742 331.212L312.865 336.193C313.595 336.599 313.509 337.291 312.65 337.758L303.613 342.699C302.776 343.166 301.488 343.207 300.758 342.821Z" fill="#24126A"/>
<path d="M314.84 350.546L305.717 345.545C304.987 345.138 305.072 344.447 305.931 343.98L314.969 339.039C315.806 338.572 317.094 338.531 317.824 338.917L326.947 343.898C327.677 344.305 327.591 344.996 326.733 345.464L317.695 350.404C316.858 350.872 315.57 350.912 314.84 350.526V350.546Z" fill="#24126A"/>
<path d="M328.944 358.252L319.82 353.25C319.09 352.844 319.176 352.153 320.035 351.685L329.072 346.745C329.91 346.277 331.198 346.236 331.927 346.623L341.051 351.604C341.781 352.01 341.695 352.702 340.836 353.169L331.799 358.11C330.961 358.577 329.673 358.618 328.944 358.232V358.252Z" fill="#24126A"/>
<path d="M343.047 365.957L333.924 360.956C333.194 360.549 333.28 359.858 334.139 359.39L343.176 354.45C344.013 353.982 345.301 353.942 346.031 354.328L355.155 359.309C355.885 359.716 355.799 360.407 354.94 360.875L345.902 365.815C345.065 366.283 343.777 366.323 343.047 365.937V365.957Z" fill="#24126A"/>
<path d="M357.13 373.663L348.006 368.661C347.276 368.255 347.362 367.564 348.221 367.096L357.258 362.155C358.096 361.688 359.384 361.647 360.113 362.033L369.237 367.015C369.967 367.421 369.881 368.112 369.022 368.58L359.985 373.52C359.147 373.988 357.859 374.029 357.13 373.642V373.663Z" fill="#24126A"/>
<path d="M371.233 381.368L362.11 376.367C361.38 375.96 361.466 375.269 362.325 374.801L371.362 369.861C372.199 369.393 373.487 369.353 374.217 369.739L383.341 374.72C384.07 375.127 383.985 375.818 383.126 376.286L374.088 381.226C373.251 381.694 371.963 381.734 371.233 381.348V381.368Z" fill="#24126A"/>
<path d="M236.937 292.928L227.813 287.947C227.083 287.541 227.169 286.85 228.028 286.382L237.066 281.441C237.903 280.974 239.191 280.933 239.921 281.319L249.044 286.301C249.774 286.707 249.688 287.398 248.829 287.866L239.792 292.807C238.955 293.274 237.667 293.315 236.937 292.928Z" fill="#24126A"/>
<path d="M222.919 285.264L213.796 280.283C213.066 279.876 213.152 279.185 214.01 278.717L223.048 273.777C223.885 273.309 225.173 273.269 225.903 273.655L235.026 278.636C235.756 279.043 235.67 279.734 234.812 280.201L225.774 285.142C224.937 285.609 223.649 285.65 222.919 285.264Z" fill="#24126A"/>
<path d="M208.901 277.599L199.778 272.618C199.048 272.211 199.134 271.52 199.992 271.052L209.03 266.112C209.867 265.644 211.155 265.604 211.885 265.99L221.008 270.971C221.738 271.378 221.652 272.069 220.794 272.537L211.756 277.477C210.919 277.945 209.631 277.985 208.901 277.599Z" fill="#24126A"/>
<path d="M194.862 269.914L185.738 264.933C185.008 264.526 185.094 263.835 185.953 263.367L194.991 258.427C195.828 257.959 197.116 257.919 197.846 258.305L206.969 263.286C207.699 263.693 207.613 264.384 206.754 264.852L197.717 269.792C196.88 270.26 195.592 270.3 194.862 269.914Z" fill="#24126A"/>
<path d="M209.287 262.046L200.164 257.065C199.434 256.658 199.52 255.967 200.379 255.499L203.363 253.873C204.2 253.405 205.488 253.364 206.218 253.751L215.341 258.732C216.071 259.138 215.985 259.83 215.126 260.297L212.143 261.924C211.305 262.391 210.017 262.432 209.287 262.046Z" fill="#24126A"/>
<path d="M227.599 272.049L218.475 267.068C217.745 266.661 217.831 265.97 218.69 265.502L221.674 263.876C222.511 263.408 223.799 263.367 224.529 263.754L233.652 268.755C234.382 269.162 234.296 269.853 233.438 270.321L230.454 271.947C229.617 272.415 228.329 272.455 227.599 272.069V272.049Z" fill="#24126A"/>
<path d="M241.552 279.693L232.429 274.712C231.699 274.305 231.785 273.614 232.643 273.147L235.627 271.52C236.464 271.052 237.752 271.012 238.482 271.398L247.606 276.379C248.336 276.786 248.25 277.477 247.391 277.945L244.407 279.571C243.57 280.039 242.282 280.079 241.552 279.693Z" fill="#24126A"/>
<path d="M255.527 287.317L246.404 282.316C245.674 281.909 245.76 281.218 246.618 280.75L249.602 279.124C250.439 278.656 251.727 278.616 252.457 279.002L261.581 283.983C262.311 284.39 262.225 285.081 261.366 285.548L258.382 287.175C257.545 287.643 256.257 287.683 255.527 287.297V287.317Z" fill="#24126A"/>
<path d="M269.502 294.962L260.379 289.981C259.649 289.574 259.735 288.883 260.593 288.415L263.577 286.789C264.414 286.321 265.702 286.28 266.432 286.667L275.556 291.648C276.285 292.054 276.2 292.746 275.341 293.213L272.357 294.84C271.52 295.307 270.232 295.348 269.502 294.962Z" fill="#24126A"/>
<path d="M347.469 337.596L338.346 332.615C337.616 332.208 337.702 331.517 338.561 331.049L341.545 329.423C342.382 328.955 343.67 328.914 344.4 329.301L353.523 334.302C354.253 334.709 354.167 335.4 353.308 335.868L350.325 337.494C349.487 337.962 348.199 338.002 347.469 337.616V337.596Z" fill="#24126A"/>
<path d="M361.444 345.24L352.321 340.259C351.591 339.852 351.677 339.161 352.536 338.694L355.52 337.067C356.357 336.599 357.645 336.559 358.375 336.945L367.498 341.926C368.228 342.333 368.142 343.024 367.283 343.492L364.299 345.118C363.462 345.586 362.174 345.626 361.444 345.24Z" fill="#24126A"/>
<path d="M375.419 352.864L366.296 347.863C365.566 347.456 365.652 346.765 366.511 346.297L369.494 344.671C370.332 344.203 371.62 344.163 372.35 344.549L381.473 349.55C382.203 349.957 382.117 350.648 381.258 351.116L378.274 352.742C377.437 353.21 376.149 353.251 375.419 352.864Z" fill="#24126A"/>
<path d="M389.373 360.509L380.249 355.528C379.519 355.121 379.605 354.43 380.464 353.962L383.448 352.336C384.285 351.868 385.573 351.827 386.303 352.214L395.426 357.215C396.156 357.622 396.07 358.313 395.212 358.781L392.228 360.407C391.391 360.875 390.103 360.915 389.373 360.529V360.509Z" fill="#24126A"/>
<path d="M251.041 300.634L241.917 295.653C241.187 295.246 241.273 294.555 242.132 294.087L251.169 289.147C252.007 288.679 253.295 288.639 254.024 289.025L263.148 294.026C263.878 294.433 263.792 295.124 262.933 295.592L253.896 300.532C253.058 301 251.77 301.041 251.041 300.654V300.634Z" fill="#24126A"/>
<path d="M265.144 308.339L256.021 303.358C255.291 302.952 255.377 302.26 256.235 301.793L265.273 296.852C266.11 296.385 267.398 296.344 268.128 296.73L277.251 301.711C277.981 302.118 277.895 302.809 277.037 303.277L267.999 308.217C267.162 308.685 265.874 308.726 265.144 308.339Z" fill="#24126A"/>
<path d="M279.226 316.065L270.103 311.084C269.373 310.677 269.459 309.986 270.318 309.519L279.355 304.578C280.192 304.111 281.48 304.07 282.21 304.456L291.334 309.437C292.064 309.844 291.978 310.535 291.119 311.003L282.081 315.943C281.244 316.411 279.956 316.452 279.226 316.065Z" fill="#24126A"/>
<path d="M293.33 323.771L284.207 318.79C283.477 318.383 283.563 317.692 284.421 317.224L293.459 312.284C294.296 311.816 295.584 311.775 296.314 312.162L305.437 317.163C306.167 317.57 306.081 318.261 305.223 318.729L296.185 323.669C295.348 324.137 294.06 324.177 293.33 323.791V323.771Z" fill="#24126A"/>
<path d="M307.434 331.476L298.31 326.495C297.581 326.088 297.666 325.397 298.525 324.929L307.563 319.989C308.4 319.521 309.688 319.481 310.418 319.867L319.541 324.848C320.271 325.255 320.185 325.946 319.326 326.414L310.289 331.354C309.452 331.822 308.164 331.862 307.434 331.476Z" fill="#24126A"/>
<path d="M321.516 339.182L312.393 334.2C311.663 333.794 311.749 333.103 312.607 332.635L321.645 327.695C322.482 327.227 323.77 327.186 324.5 327.573L333.623 332.554C334.353 332.96 334.267 333.652 333.409 334.119L324.371 339.06C323.534 339.527 322.246 339.568 321.516 339.182Z" fill="#24126A"/>
<path d="M335.62 346.887L326.496 341.906C325.767 341.499 325.852 340.808 326.711 340.34L335.749 335.4C336.586 334.932 337.874 334.892 338.604 335.278L347.727 340.279C348.457 340.686 348.371 341.377 347.512 341.845L338.475 346.785C337.638 347.253 336.35 347.294 335.62 346.907V346.887Z" fill="#24126A"/>
<path d="M349.724 354.592L340.6 349.591C339.87 349.184 339.956 348.493 340.815 348.025L349.852 343.085C350.69 342.617 351.978 342.577 352.707 342.963L361.831 347.944C362.561 348.351 362.475 349.042 361.616 349.51L352.579 354.45C351.741 354.918 350.453 354.958 349.724 354.572V354.592Z" fill="#24126A"/>
<path d="M363.806 362.298L354.682 357.296C353.952 356.89 354.038 356.199 354.897 355.731L363.935 350.79C364.772 350.323 366.06 350.282 366.79 350.668L375.913 355.65C376.643 356.056 376.557 356.747 375.698 357.215L366.661 362.156C365.824 362.623 364.536 362.664 363.806 362.277V362.298Z" fill="#24126A"/>
<path d="M170.454 301.59L143.578 286.89C142.848 286.484 142.934 285.792 143.792 285.325L152.83 280.384C153.667 279.917 154.955 279.876 155.685 280.262L182.561 294.962C183.291 295.368 183.205 296.06 182.347 296.527L173.309 301.468C172.472 301.935 171.184 301.976 170.454 301.59Z" fill="#24126A"/>
<path d="M343.627 396.291L316.75 381.592C316.021 381.185 316.106 380.494 316.965 380.026L326.003 375.086C326.84 374.618 328.128 374.578 328.858 374.964L355.734 389.663C356.464 390.07 356.378 390.761 355.52 391.229L346.482 396.169C345.645 396.637 344.357 396.678 343.627 396.291Z" fill="#24126A"/>
<path d="M287.255 382.486L278.132 377.505C277.402 377.099 277.488 376.408 278.346 375.94L289.123 370.044C289.96 369.576 291.248 369.536 291.978 369.922L301.101 374.903C301.831 375.31 301.745 376.001 300.886 376.468L290.11 382.364C289.273 382.832 287.985 382.873 287.255 382.486Z" fill="#24126A"/>
<path d="M184.88 326.515L170.282 318.525C169.552 318.119 169.638 317.427 170.497 316.96L181.273 311.064C182.11 310.596 183.398 310.556 184.128 310.942L198.726 318.932C199.456 319.338 199.37 320.03 198.511 320.497L187.735 326.393C186.898 326.861 185.61 326.902 184.88 326.515Z" fill="#24126A"/>
<path d="M273.667 375.066L259.069 367.076C258.339 366.669 258.425 365.978 259.284 365.51L270.06 359.614C270.897 359.146 272.185 359.106 272.915 359.492L287.513 367.482C288.242 367.889 288.157 368.58 287.298 369.048L276.522 374.944C275.684 375.411 274.396 375.452 273.667 375.066Z" fill="#24126A"/>
<path d="M205.23 337.636L190.633 329.646C189.903 329.24 189.989 328.548 190.847 328.081L201.624 322.185C202.461 321.717 203.749 321.676 204.479 322.063L219.076 330.053C219.806 330.459 219.72 331.151 218.862 331.618L208.085 337.514C207.248 337.982 205.96 338.023 205.23 337.636Z" fill="#24126A"/>
<path d="M204.565 322.144L268.042 356.849C268.836 357.276 268.836 357.988 268.042 358.415L257.051 364.412C256.257 364.839 254.99 364.839 254.196 364.412L190.719 329.707L204.565 322.144Z" fill="#24126A"/>
<path d="M326.647 396.454L336.822 402.004C337.423 402.329 337.337 402.899 336.65 403.285L332.25 405.704C331.563 406.091 330.511 406.131 329.91 405.806L319.734 400.256C319.133 399.93 319.219 399.361 319.906 398.975L324.307 396.555C324.994 396.169 326.046 396.128 326.647 396.454Z" fill="#24126A"/>
<path d="M312.436 388.687L322.611 394.238C323.212 394.563 323.126 395.132 322.439 395.519L318.038 397.938C317.352 398.324 316.3 398.365 315.699 398.04L305.523 392.489C304.922 392.164 305.008 391.595 305.695 391.208L310.096 388.789C310.783 388.403 311.835 388.362 312.436 388.687Z" fill="#24126A"/>
<path d="M298.332 380.982L308.507 386.532C309.108 386.858 309.022 387.427 308.335 387.813L303.935 390.233C303.248 390.619 302.196 390.66 301.595 390.334L291.42 384.784C290.819 384.459 290.904 383.889 291.591 383.503L295.992 381.084C296.679 380.697 297.731 380.657 298.332 380.982Z" fill="#24126A"/>
<path d="M320.228 384.438L330.403 389.989C331.004 390.314 330.919 390.883 330.232 391.269L325.831 393.689C325.144 394.075 324.092 394.116 323.491 393.791L313.316 388.24C312.715 387.915 312.801 387.346 313.488 386.959L317.888 384.54C318.575 384.154 319.627 384.113 320.228 384.438Z" fill="#24126A"/>
</g>
<path d="M464.034 176.717C463.347 176.717 462.618 176.513 461.909 176.147C459.762 174.968 458.41 172.305 458.925 170.191C459.183 169.174 459.805 168.422 460.707 168.035C461.694 167.629 462.94 167.751 464.099 168.381C466.245 169.56 467.598 172.244 467.083 174.338C466.825 175.355 466.203 176.107 465.301 176.493C464.915 176.656 464.485 176.737 464.056 176.737L464.034 176.717ZM461.974 168.727C461.673 168.727 461.372 168.788 461.093 168.889C460.471 169.133 460.042 169.682 459.87 170.394C459.44 172.122 460.578 174.338 462.381 175.334C463.262 175.822 464.163 175.924 464.893 175.619C465.516 175.375 465.945 174.826 466.117 174.114C466.546 172.386 465.408 170.15 463.605 169.174C463.047 168.869 462.489 168.727 461.974 168.727Z" fill="#42E8E0"/>
<path d="M475.648 183.06C474.961 183.06 474.231 182.857 473.523 182.491C471.376 181.312 470.024 178.648 470.539 176.534C470.796 175.517 471.419 174.765 472.321 174.379C473.308 173.972 474.553 174.094 475.712 174.724C477.859 175.904 479.211 178.587 478.696 180.681C478.439 181.698 477.816 182.45 476.915 182.836C476.528 182.999 476.099 183.08 475.669 183.08L475.648 183.06ZM473.587 175.07C473.287 175.07 472.986 175.131 472.707 175.233C472.084 175.477 471.655 176.026 471.483 176.737C471.054 178.465 472.192 180.681 473.995 181.678C474.875 182.165 475.777 182.267 476.507 181.962C477.129 181.718 477.558 181.169 477.73 180.458C478.16 178.73 477.022 176.493 475.219 175.517C474.66 175.212 474.102 175.07 473.587 175.07Z" fill="#42E8E0"/>
<path d="M489.838 186.923C489.365 188.854 487.369 189.525 485.394 188.448C483.419 187.37 482.174 184.931 482.646 182.999C483.118 181.068 485.115 180.397 487.09 181.474C489.086 182.552 490.31 184.992 489.838 186.923Z" fill="#42E8E0"/>
<path d="M266.99 65.4657L260.765 62.0704L261.259 59.3461L267.463 62.7413L266.99 65.4657Z" fill="#42E8E0"/>
<path d="M276.028 70.4061L269.802 67.0108L270.296 64.2865L276.5 67.6818L276.028 70.4061Z" fill="#42E8E0"/>
<path d="M258.039 60.5862L244.407 53.1247L244.901 50.4004L258.532 57.8619L258.039 60.5862Z" fill="#42E8E0"/>
<path d="M259.756 111.942L249.345 106.25L249.752 103.973L260.164 109.665L259.756 111.942Z" fill="#42E8E0"/>
<path d="M268.643 116.801L263.427 113.955L263.835 111.678L269.051 114.524L268.643 116.801Z" fill="#42E8E0"/>
<path d="M261.881 118.956L257.459 116.537L257.845 114.26L262.289 116.679L261.881 118.956Z" fill="#42E8E0"/>
<path d="M269.309 123.023L264.114 120.176L264.5 117.899L269.717 120.746L269.309 123.023Z" fill="#42E8E0"/>
<path d="M276.951 133.066L256.514 121.884L256.901 119.607L277.359 130.789L276.951 133.066Z" fill="#42E8E0"/>
<path d="M259.219 177.774L238.783 166.592L239.191 164.315L259.627 175.497L259.219 177.774Z" fill="#42E8E0"/>
<path d="M267.098 182.064L261.881 179.218L262.289 176.94L267.484 179.787L267.098 182.064Z" fill="#42E8E0"/>
<path d="M259.992 129.65L255.57 127.211L255.956 124.934L260.4 127.373L259.992 129.65Z" fill="#42E8E0"/>
<path d="M267.42 133.696L262.225 130.85L262.611 128.573L267.828 131.419L267.42 133.696Z" fill="#42E8E0"/>
<path d="M265.853 138.698L254.604 132.558L255.012 130.281L266.26 136.421L265.853 138.698Z" fill="#42E8E0"/>
<path d="M273.366 142.825L268.171 139.979L268.579 137.702L273.774 140.548L273.366 142.825Z" fill="#42E8E0"/>
<path d="M280.944 146.952L275.727 144.106L276.135 141.829L281.33 144.675L280.944 146.952Z" fill="#42E8E0"/>
<path d="M293.137 153.621L283.305 148.253L283.692 145.956L293.545 151.344L293.137 153.621Z" fill="#42E8E0"/>
<path d="M285.344 161.082L280.149 158.236L280.557 155.959L285.752 158.805L285.344 161.082Z" fill="#42E8E0"/>
<path d="M297.559 167.751L287.706 162.363L288.114 160.086L297.967 165.474L297.559 167.751Z" fill="#42E8E0"/>
<path d="M257.931 146.078L252.715 143.232L253.123 140.955L258.318 143.801L257.931 146.078Z" fill="#42E8E0"/>
<path d="M265.488 150.225L260.293 147.379L260.679 145.102L265.896 147.948L265.488 150.225Z" fill="#42E8E0"/>
<path d="M277.681 156.894L267.849 151.506L268.257 149.229L278.089 154.617L277.681 156.894Z" fill="#42E8E0"/>
<path d="M293.674 159.781L288.479 156.935L288.886 154.658L294.081 157.504L293.674 159.781Z" fill="#42E8E0"/>
<path d="M301.251 163.908L296.035 161.062L296.443 158.785L301.638 161.631L301.251 163.908Z" fill="#42E8E0"/>
<path d="M313.445 170.597L303.613 165.209L303.999 162.932L313.852 168.3L313.445 170.597Z" fill="#42E8E0"/>
<path d="M275.234 186.516L270.017 183.67L270.425 181.393L275.62 184.239L275.234 186.516Z" fill="#42E8E0"/>
<path d="M287.427 193.185L277.595 187.797L277.981 185.52L287.835 190.908L287.427 193.185Z" fill="#42E8E0"/>
<path d="M256.042 156.772L250.826 153.926L251.234 151.649L256.429 154.495L256.042 156.772Z" fill="#42E8E0"/>
<path d="M268.235 163.441L258.404 158.053L258.79 155.776L268.643 161.164L268.235 163.441Z" fill="#42E8E0"/>
<path d="M280.901 195.462L275.684 192.636L276.092 190.339L281.287 193.185L280.901 195.462Z" fill="#42E8E0"/>
<path d="M293.094 202.151L283.262 196.763L283.649 194.486L293.502 199.874L293.094 202.151Z" fill="#42E8E0"/>
<path d="M292.493 141.564L287.298 138.718L287.706 136.441L292.901 139.287L292.493 141.564Z" fill="#42E8E0"/>
<path d="M284.636 137.254L279.441 134.408L279.827 132.131L285.044 134.977L284.636 137.254Z" fill="#42E8E0"/>
<path d="M304.708 148.233L294.854 142.845L295.262 140.568L305.115 145.956L304.708 148.233Z" fill="#42E8E0"/>
<path d="M258.361 140.467L253.659 137.905L254.067 135.628L258.769 138.19L258.361 140.467Z" fill="#42E8E0"/>
<path d="M272.271 148.07L260.872 141.849L261.28 139.552L272.679 145.793L272.271 148.07Z" fill="#42E8E0"/>
<path d="M286.203 155.694L274.783 149.453L275.191 147.176L286.611 153.417L286.203 155.694Z" fill="#42E8E0"/>
<path d="M311.942 152.177L307.241 149.616L307.648 147.339L312.328 149.9L311.942 152.177Z" fill="#42E8E0"/>
<path d="M325.852 159.801L314.432 153.56L314.84 151.283L326.26 157.524L325.852 159.801Z" fill="#42E8E0"/>
<path d="M339.763 167.405L328.364 161.164L328.772 158.886L340.171 165.128L339.763 167.405Z" fill="#42E8E0"/>
<path d="M263.277 154.881L251.878 148.64L252.286 146.363L263.684 152.604L263.277 154.881Z" fill="#42E8E0"/>
<path d="M269.309 158.155L265.788 156.244L266.196 153.966L269.695 155.878L269.309 158.155Z" fill="#42E8E0"/>
<path d="M275.319 161.469L271.82 159.537L272.228 157.26L275.727 159.171L275.319 161.469Z" fill="#42E8E0"/>
<path d="M286.461 167.547L277.853 162.831L278.26 160.554L286.869 165.27L286.461 167.547Z" fill="#42E8E0"/>
<path d="M298.954 156.813L295.455 154.902L295.863 152.604L299.362 154.536L298.954 156.813Z" fill="#42E8E0"/>
<path d="M310.096 162.892L301.488 158.195L301.895 155.918L310.504 160.615L310.096 162.892Z" fill="#42E8E0"/>
<path d="M312.436 164.172L303.827 159.476L304.235 157.199L312.843 161.895L312.436 164.172Z" fill="#42E8E0"/>
<path d="M266.561 193.49L255.312 187.35L255.72 185.073L266.947 191.213L266.561 193.49Z" fill="#42E8E0"/>
<path d="M274.074 197.597L268.879 194.75L269.287 192.473L274.482 195.32L274.074 197.597Z" fill="#42E8E0"/>
<path d="M281.631 201.744L276.436 198.898L276.844 196.621L282.039 199.467L281.631 201.744Z" fill="#42E8E0"/>
<path d="M293.845 208.413L283.992 203.025L284.4 200.748L294.253 206.136L293.845 208.413Z" fill="#42E8E0"/>
<path d="M301.659 212.682L296.443 209.836L296.851 207.559L302.046 210.405L301.659 212.682Z" fill="#42E8E0"/>
<path d="M313.852 219.351L303.999 213.963L304.407 211.686L314.26 217.074L313.852 219.351Z" fill="#42E8E0"/>
<path d="M276.414 210.588L271.219 207.742L271.627 205.465L276.822 208.311L276.414 210.588Z" fill="#42E8E0"/>
<path d="M288.629 217.277L278.776 211.889L279.183 209.612L289.015 215L288.629 217.277Z" fill="#42E8E0"/>
<path d="M249.237 195.747L244.042 192.9L244.45 190.623L249.645 193.469L249.237 195.747Z" fill="#42E8E0"/>
<path d="M256.815 199.874L251.599 197.027L252.006 194.75L257.201 197.597L256.815 199.874Z" fill="#42E8E0"/>
<path d="M269.008 206.542L259.176 201.155L259.563 198.877L269.416 204.265L269.008 206.542Z" fill="#42E8E0"/>
<path d="M259.069 195.259L254.368 192.677L254.776 190.4L259.477 192.982L259.069 195.259Z" fill="#42E8E0"/>
<path d="M272.98 202.862L261.581 196.621L261.967 194.344L273.387 200.585L272.98 202.862Z" fill="#42E8E0"/>
<path d="M286.89 210.466L275.491 204.225L275.899 201.948L287.298 208.189L286.89 210.466Z" fill="#42E8E0"/>
<path d="M245.395 199.487L233.996 193.266L234.404 190.989L245.803 197.21L245.395 199.487Z" fill="#42E8E0"/>
<path d="M251.427 202.781L247.906 200.87L248.314 198.593L251.813 200.504L251.427 202.781Z" fill="#42E8E0"/>
<path d="M257.438 206.075L253.938 204.164L254.346 201.886L257.845 203.798L257.438 206.075Z" fill="#42E8E0"/>
<path d="M268.579 212.174L259.971 207.457L260.379 205.18L268.987 209.897L268.579 212.174Z" fill="#42E8E0"/>
<path d="M270.94 213.455L262.311 208.738L262.718 206.461L271.327 211.178L270.94 213.455Z" fill="#42E8E0"/>
<path d="M250.547 178.872L247.048 176.961L247.434 174.684L250.955 176.595L250.547 178.872Z" fill="#42E8E0"/>
<path d="M261.688 184.971L253.058 180.254L253.466 177.977L262.096 182.694L261.688 184.971Z" fill="#42E8E0"/>
<path d="M273.065 191.192L264.457 186.476L264.844 184.198L273.473 188.915L273.065 191.192Z" fill="#42E8E0"/>
<path d="M316.944 226.894L311.727 224.047L312.135 221.77L317.352 224.616L316.944 226.894Z" fill="#42E8E0"/>
<path d="M329.137 233.562L319.305 228.195L319.691 225.918L329.545 231.285L329.137 233.562Z" fill="#42E8E0"/>
<path d="M297.731 216.382L289.101 211.686L289.509 209.409L298.139 214.105L297.731 216.382Z" fill="#42E8E0"/>
<path d="M309.108 222.624L300.5 217.907L300.886 215.63L309.516 220.347L309.108 222.624Z" fill="#42E8E0"/>
<path d="M244.45 156.284L240.951 154.373L241.359 152.096L244.858 154.007L244.45 156.284Z" fill="#42E8E0"/>
<path d="M255.591 162.383L246.962 157.667L247.37 155.39L255.999 160.106L255.591 162.383Z" fill="#42E8E0"/>
<path d="M266.969 168.605L258.361 163.888L258.769 161.611L267.377 166.328L266.969 168.605Z" fill="#42E8E0"/>
<path d="M438.961 251.636C438.167 251.636 437.351 251.413 436.557 250.965L366.875 212.865C364.042 211.32 362.196 207.376 362.775 204.103L367.24 178.933C367.541 177.225 368.485 175.904 369.795 175.314C371.019 174.765 372.457 174.887 373.831 175.639L443.512 213.739C446.346 215.285 448.192 219.229 447.612 222.502L443.147 247.672C442.847 249.38 441.902 250.701 440.593 251.291C440.077 251.514 439.541 251.636 438.983 251.636H438.961ZM371.405 175.904C370.976 175.904 370.589 175.985 370.203 176.148C369.172 176.615 368.443 177.672 368.185 179.075L363.72 204.245C363.205 207.173 364.836 210.69 367.348 212.052L437.029 250.152C438.124 250.742 439.219 250.843 440.142 250.437C441.172 249.969 441.902 248.912 442.16 247.489L446.625 222.319C447.14 219.391 445.508 215.874 442.997 214.512L373.316 176.412C372.672 176.066 372.006 175.883 371.384 175.883L371.405 175.904Z" fill="#42E8E0"/>
<path d="M431.297 294.901C430.503 294.901 429.687 294.677 428.893 294.25L359.233 256.15C356.4 254.605 354.553 250.66 355.133 247.387L359.598 222.217C359.899 220.51 360.822 219.188 362.153 218.598C363.376 218.05 364.815 218.172 366.189 218.924L435.87 257.024C438.703 258.569 440.55 262.513 439.97 265.787L435.505 290.956C435.204 292.664 434.26 293.986 432.95 294.575C432.435 294.799 431.898 294.921 431.34 294.921L431.297 294.901ZM429.387 293.437C430.482 294.026 431.577 294.128 432.5 293.721C433.53 293.254 434.26 292.197 434.517 290.773L438.983 265.604C439.498 262.676 437.866 259.159 435.355 257.797L365.673 219.696C364.579 219.107 363.462 219.005 362.539 219.412C361.509 219.879 360.779 220.937 360.543 222.339L356.078 247.509C355.562 250.437 357.194 253.954 359.706 255.316L429.365 293.416L429.387 293.437Z" fill="#42E8E0"/>
<path style="mix-blend-mode:lighten" opacity="0.5" d="M373.144 210.161C374.367 210.832 375.484 210.588 375.892 209.531L384.006 188.509C384.929 186.11 388.729 188.285 389.523 191.66L394.525 212.825C394.89 214.37 396.027 215.915 397.315 216.606L398.518 217.257C399.677 217.887 400.729 217.704 401.179 216.789L402.832 213.475C403.863 211.422 407.276 213.353 408.199 216.525C408.628 217.989 409.702 219.391 410.904 220.042L411.956 220.611C413.222 221.303 414.339 221.018 414.725 219.9L416.228 215.508C417.086 213.028 420.886 215.102 421.745 218.497L426.746 238.076C427.133 239.621 428.271 241.125 429.559 241.796L373.122 210.121L373.144 210.161Z" fill="url(#paint6_linear_9_3)"/>
<path d="M420.736 284.938C419.34 284.207 418.117 282.58 417.687 280.913L412.686 261.334C412.149 259.26 410.367 257.654 409.122 257.593C408.628 257.573 408.285 257.817 408.092 258.366L406.589 262.757C406.374 263.388 405.967 263.815 405.387 264.038C404.722 264.282 403.927 264.181 403.112 263.733L402.06 263.164C400.75 262.452 399.591 260.948 399.119 259.362C398.518 257.349 396.865 255.906 395.684 255.804C395.212 255.764 394.868 255.946 394.654 256.394L393.001 259.708C392.743 260.216 392.335 260.562 391.82 260.724C391.176 260.907 390.425 260.806 389.652 260.379L388.45 259.728C387.033 258.955 385.831 257.309 385.444 255.642L380.443 234.477C379.949 232.383 378.167 230.736 376.9 230.655C376.407 230.655 376.063 230.858 375.849 231.366L367.713 252.389C367.477 252.978 367.069 253.385 366.511 253.588C365.867 253.812 365.072 253.69 364.278 253.263L364.772 252.47C365.308 252.755 365.802 252.856 366.189 252.714C366.468 252.612 366.682 252.409 366.811 252.063L374.947 231.041C375.291 230.146 376.042 229.638 376.965 229.72C378.618 229.821 380.786 231.671 381.409 234.253L386.41 255.418C386.754 256.841 387.784 258.264 388.965 258.915L390.167 259.565C390.682 259.85 391.176 259.931 391.541 259.83C391.798 259.748 392.013 259.565 392.142 259.301L393.795 255.987C394.181 255.215 394.911 254.788 395.791 254.889C397.552 255.032 399.441 256.882 400.085 259.118C400.471 260.46 401.48 261.761 402.575 262.371L403.627 262.94C404.163 263.245 404.679 263.327 405.065 263.184C405.344 263.083 405.559 262.839 405.688 262.493L407.19 258.102C407.491 257.207 408.199 256.699 409.101 256.699H409.187C410.818 256.76 413.008 258.549 413.652 261.131L418.654 280.71C419.018 282.112 420.07 283.536 421.23 284.146L420.757 284.959L420.736 284.938Z" fill="#42E8E0"/>
<path d="M392.786 154.454C391.777 154.454 390.725 154.17 389.738 153.641L335.255 123.856C331.885 122.026 330.017 117.574 331.069 113.975C331.605 112.146 332.786 110.804 334.375 110.173C335.942 109.564 337.702 109.726 339.355 110.641L393.838 140.426C397.208 142.276 399.076 146.708 398.024 150.307C397.487 152.137 396.306 153.478 394.718 154.109C394.095 154.353 393.451 154.475 392.786 154.475V154.454ZM336.328 110.743C335.791 110.743 335.255 110.844 334.761 111.027C333.452 111.536 332.464 112.674 332.035 114.199C331.09 117.432 332.765 121.396 335.77 123.043L390.253 152.828C391.648 153.58 393.108 153.743 394.374 153.234C395.684 152.726 396.671 151.588 397.101 150.063C398.045 146.83 396.371 142.866 393.366 141.219L338.883 111.434C338.046 110.966 337.165 110.743 336.328 110.743Z" fill="#42E8E0"/>
<defs>
<linearGradient id="paint0_linear_9_3" x1="521.329" y1="188.651" x2="185.738" y2="188.651" gradientUnits="userSpaceOnUse">
<stop stop-color="#C0BFF6"/>
<stop offset="0.29" stop-color="#C4C3F6"/>
<stop offset="0.64" stop-color="#D2D2F9"/>
<stop offset="1" stop-color="#E9E9FD"/>
</linearGradient>
<linearGradient id="paint1_linear_9_3" x1="521.329" y1="270.158" x2="463.691" y2="270.158" gradientUnits="userSpaceOnUse">
<stop stop-color="#5761D7"/>
<stop offset="0.18" stop-color="#5B65D8"/>
<stop offset="0.39" stop-color="#6A72DE"/>
<stop offset="0.61" stop-color="#8188E8"/>
<stop offset="0.85" stop-color="#A2A6F5"/>
<stop offset="1" stop-color="#BCBEFF"/>
</linearGradient>
<linearGradient id="paint2_linear_9_3" x1="476.356" y1="359.086" x2="2.41161" y2="359.086" gradientUnits="userSpaceOnUse">
<stop stop-color="#5761D7"/>
<stop offset="0.18" stop-color="#5B65D8"/>
<stop offset="0.39" stop-color="#6A72DE"/>
<stop offset="0.61" stop-color="#8188E8"/>
<stop offset="0.85" stop-color="#A2A6F5"/>
<stop offset="1" stop-color="#BCBEFF"/>
</linearGradient>
<linearGradient id="paint3_linear_9_3" x1="686.924" y1="346.806" x2="-11.456" y2="346.806" gradientUnits="userSpaceOnUse">
<stop stop-color="#C0BFF6"/>
<stop offset="0.29" stop-color="#C4C3F6"/>
<stop offset="0.64" stop-color="#D2D2F9"/>
<stop offset="1" stop-color="#E9E9FD"/>
</linearGradient>
<linearGradient id="paint4_linear_9_3" x1="658.61" y1="260.297" x2="184.665" y2="260.297" gradientUnits="userSpaceOnUse">
<stop stop-color="#4A4C64"/>
<stop offset="0.18" stop-color="#5B65D8"/>
<stop offset="0.39" stop-color="#6A72DE"/>
<stop offset="0.61" stop-color="#8188E8"/>
<stop offset="0.85" stop-color="#A2A6F5"/>
<stop offset="1" stop-color="#BCBEFF"/>
</linearGradient>
<linearGradient id="paint5_linear_9_3" x1="499.369" y1="248.017" x2="25.1665" y2="248.017" gradientUnits="userSpaceOnUse">
<stop stop-color="#C0BFF6"/>
<stop offset="0.29" stop-color="#C4C3F6"/>
<stop offset="0.64" stop-color="#D2D2F9"/>
<stop offset="1" stop-color="#E9E9FD"/>
</linearGradient>
<linearGradient id="paint6_linear_9_3" x1="378.489" y1="202.822" x2="476.841" y2="247.251" gradientUnits="userSpaceOnUse">
<stop stop-color="#42E8E0"/>
<stop offset="0.11" stop-color="#36B5BF"/>
<stop offset="0.22" stop-color="#2C87A0"/>
<stop offset="0.34" stop-color="#235F86"/>
<stop offset="0.46" stop-color="#1B3E71"/>
<stop offset="0.58" stop-color="#162560"/>
<stop offset="0.71" stop-color="#121355"/>
<stop offset="0.85" stop-color="#0F084E"/>
<stop offset="1" stop-color="#0F054C"/>
</linearGradient>
</defs>
</svg>
