<svg width="1457" height="832" viewBox="0 0 1457 832" fill="none" xmlns="http://www.w3.org/2000/svg">
<g opacity="0.6">
<path opacity="0.8" d="M1493.39 1.42587C1490.22 -0.475288 1485.07 -0.475288 1481.9 1.42587C1479.52 2.85173 1478.93 4.93772 1480.13 6.68044L1302.14 112.67V246.463L1258.77 272.287V417.805L1110.25 506.261L1087.1 492.478L1201.64 424.274V344.505L1201.18 344.241L1070.95 266.69V239.625L1144.6 195.766C1147.78 197.139 1152.23 196.981 1155.1 195.291C1158.27 193.39 1158.27 190.327 1155.1 188.452C1151.92 186.551 1146.78 186.551 1143.6 188.452C1140.74 190.168 1140.48 192.809 1142.78 194.71L1069.13 238.568V267.799L1069.59 268.063L1199.82 345.614V423.218L1113.29 474.76V441.516L1152.97 417.884C1156.15 419.257 1160.6 419.099 1163.47 417.409C1166.64 415.508 1166.64 412.445 1163.47 410.57C1160.29 408.669 1155.15 408.669 1151.97 410.57C1149.11 412.286 1148.85 414.927 1151.15 416.828L1111.48 440.46V475.869L1085.29 491.448L1054.34 473.018V415.138L1112.7 380.363V340.359L1112.24 340.095L989.341 266.901C991.644 265 991.388 262.359 988.521 260.643C985.347 258.742 980.202 258.742 977.027 260.643C973.853 262.544 973.853 265.607 977.027 267.482C979.894 269.198 984.349 269.33 987.523 267.957L1110.86 341.415V379.254L1054.31 412.946V373.049L1053.85 372.784L978.666 328.002C980.969 326.101 980.714 323.46 977.846 321.744C974.672 319.843 969.527 319.843 966.352 321.744C963.178 323.645 963.178 326.708 966.352 328.583C969.219 330.299 973.674 330.431 976.848 329.058L1052.49 374.105V471.882L1030.76 458.944L994.947 480.279L962.512 460.95V414.003L962.052 413.739L876.293 362.671V318.417C878.06 318.311 879.775 317.862 881.132 317.044C884.306 315.143 884.306 312.08 881.132 310.205C877.957 308.304 872.812 308.304 869.638 310.205C866.463 312.106 866.463 315.169 869.638 317.044C870.994 317.862 872.71 318.285 874.476 318.417V363.754L874.937 364.018L960.695 415.085V459.868L821.127 376.745V288.632L896.824 243.559H966.301L966.506 243.427L1085.72 172.45C1088.9 173.824 1093.35 173.665 1096.22 171.975C1099.39 170.074 1099.39 167.011 1096.22 165.136C1093.04 163.235 1087.9 163.235 1084.72 165.136C1081.86 166.853 1081.6 169.493 1083.9 171.394L965.815 241.711H899.973L1118.98 111.297C1122.15 112.67 1126.6 112.511 1129.47 110.821C1132.65 108.92 1132.65 105.857 1129.47 103.983C1126.3 102.081 1121.15 102.081 1117.98 103.983C1115.11 105.699 1114.85 108.339 1117.16 110.24L819.309 287.602V377.881L819.77 378.145L993.155 481.388L958.263 502.169L662.231 325.889V220.692L661.77 220.428L561.088 160.489C563.392 158.588 563.136 155.947 560.269 154.231C557.094 152.33 551.949 152.33 548.775 154.231C545.6 156.132 545.6 159.195 548.775 161.07C551.642 162.786 556.096 162.918 559.27 161.545L660.388 221.775V326.972L660.849 327.236L956.42 503.251L923.192 523.028L630.437 348.677H455.849L346.744 283.694V183.831C347.896 183.593 348.997 183.224 349.893 182.696C353.067 180.794 353.067 177.731 349.893 175.857C346.718 173.956 341.573 173.956 338.399 175.857C335.224 177.758 335.224 180.821 338.399 182.696C340.191 183.752 342.597 184.201 344.927 184.069V284.777L345.387 285.041L455.388 350.552H629.976L877.113 497.733H827.399L743.049 447.51H678.077L677.872 447.642L587.763 501.297C584.588 499.924 580.134 500.083 577.267 501.772C574.092 503.674 574.092 506.737 577.267 508.611C580.441 510.512 585.587 510.512 588.761 508.611C591.628 506.895 591.884 504.255 589.58 502.353L678.564 449.359H742.562L826.912 499.581H880.261L921.4 524.085L832.723 576.894L807.508 561.87V522.448L743.458 484.292C745.762 482.391 745.506 479.751 742.639 478.034C739.465 476.133 734.319 476.133 731.145 478.034C727.97 479.936 727.97 482.999 731.145 484.873C734.012 486.59 738.466 486.722 741.641 485.349L805.69 523.504V560.761L737.366 520.071H705.008L704.803 520.203L666.225 543.175C663.05 541.802 658.596 541.961 655.729 543.651C652.555 545.552 652.555 548.615 655.729 550.49C658.903 552.391 664.049 552.391 667.223 550.49C670.09 548.773 670.346 546.133 668.042 544.232L705.494 521.946H736.853L830.88 577.924L813.805 588.09L868.306 620.542L842.784 635.751H804.18L776.558 619.301C778.76 617.426 778.453 614.812 775.637 613.122C772.462 611.221 767.317 611.221 764.142 613.122C760.968 615.023 760.968 618.086 764.142 619.961C767.035 621.677 771.566 621.809 774.766 620.383L803.694 637.599H839.635L774.536 676.362L621.4 585.159H511.195L510.99 585.291L448.937 622.232C445.763 620.859 441.308 621.017 438.441 622.707C435.267 624.608 435.267 627.671 438.441 629.546C441.615 631.447 446.761 631.447 449.935 629.546C452.802 627.829 453.058 625.189 450.754 623.288L511.681 587.007H620.888L739.004 657.35H688.445L639.038 627.935C641.342 626.034 641.086 623.393 638.219 621.677C635.045 619.776 629.899 619.776 626.725 621.677C623.551 623.578 623.551 626.641 626.725 628.516C629.592 630.232 634.046 630.364 637.221 628.991L687.959 659.199H742.153L772.693 677.392L694.947 723.679H446.479L253.434 608.712C255.738 606.811 255.482 604.171 252.615 602.454C249.441 600.553 244.295 600.553 241.121 602.454C237.947 604.356 237.947 607.418 241.121 609.293C243.988 611.01 248.442 611.142 251.617 609.769L445.993 725.528H691.799L660.951 743.905H477.019L476.815 744.037L386.116 798.062C382.942 796.689 378.487 796.847 375.62 798.537C372.446 800.438 372.446 803.501 375.62 805.376C378.795 807.277 383.94 807.277 387.114 805.376C389.981 803.66 390.237 801.019 387.933 799.118L477.531 745.78H661.463L661.668 745.648L870.124 621.519L893.266 635.302L674.109 765.822H513.831L513.627 765.954L320.044 881.237H51.8388L0 850.528V852.694L51.3524 883.271H320.53L320.735 883.139L442.23 810.789V853.618L362.155 901.305C358.981 899.932 354.526 900.09 351.659 901.78C348.485 903.682 348.485 906.744 351.659 908.619C354.833 910.52 359.979 910.52 363.153 908.619C366.02 906.903 366.276 904.262 363.972 902.361L444.047 854.674V809.944H443.638L514.343 767.828H674.621L674.826 767.696L895.109 636.517L921.4 652.175L493.992 906.692V952.689H495.809V907.774L923.217 653.257L955.703 672.612L735.241 803.897V827.371L696.15 850.661V904.659L620.351 949.811C617.176 948.438 612.722 948.596 609.855 950.286C608.703 950.973 607.96 951.818 607.653 952.715H623.499C623.269 952.055 622.834 951.448 622.168 950.894L697.968 905.741V851.743L735.241 829.537V915.986L757.231 929.083L717.603 952.689H721.238L759.048 930.166L796.859 952.689H800.494L737.033 914.904V804.98L957.495 673.695L987.062 691.307L831.034 784.226C827.859 782.853 823.405 783.011 820.538 784.701C817.364 786.602 817.364 789.665 820.538 791.54C823.712 793.441 828.858 793.441 832.032 791.54C834.899 789.824 835.155 787.183 832.851 785.282L988.88 692.363L1017.42 709.368L830.778 820.506H780.065C779.758 819.608 779.016 818.737 777.838 818.024C774.664 816.123 769.518 816.123 766.344 818.024C763.17 819.925 763.17 822.988 766.344 824.863C769.518 826.764 774.664 826.764 777.838 824.863C779.016 824.15 779.758 823.279 780.065 822.381H831.264L831.469 822.249L1019.22 710.45L1030.73 717.316L1039.59 712.035L1084.31 738.651V775.723L1047.37 797.719V797.613H989.392L989.187 797.745L925.572 835.636C922.398 834.263 917.944 834.421 915.077 836.111C911.902 838.013 911.902 841.075 915.077 842.95C918.251 844.851 923.396 844.851 926.571 842.95C929.438 841.234 929.694 838.593 927.39 836.692L989.878 799.488H1044.38L935.761 864.153C932.561 862.675 927.979 862.78 925.035 864.523C921.86 866.424 921.86 869.487 925.035 871.362C928.209 873.263 933.355 873.263 936.529 871.362C939.319 869.698 939.652 867.137 937.527 865.236L1073 784.569V802.392L992.412 850.396V884.274L926.801 923.353C923.627 921.98 919.173 922.139 916.305 923.828C913.131 925.73 913.131 928.793 916.305 930.667C919.48 932.569 924.625 932.569 927.8 930.667C930.667 928.951 930.923 926.311 928.619 924.409L994.23 885.33V851.453L1074.82 803.449V783.46L1086.11 776.727V737.489L1041.38 710.846L1070.77 693.34L1162.78 748.13V810.419L1100.29 847.624C1097.09 846.145 1092.51 846.251 1089.56 847.994C1086.39 849.895 1086.39 852.958 1089.56 854.832C1092.74 856.734 1097.88 856.734 1101.06 854.832C1103.85 853.169 1104.18 850.608 1102.05 848.707L1162.75 812.558V862.886L1114.8 891.456V952.557H1116.62V892.539L1162.75 865.051V952.531H1164.57V747.021L1072.56 692.231L1105.56 672.586L1225.83 744.196V914.772L1283.63 949.204V952.557H1285.45V948.121L1227.65 913.689V743.113L1107.38 671.503L1131.83 656.928L1294.13 753.57V899.087L1383.85 952.531H1387.49L1295.94 898.004V752.487L1133.64 655.845L1173.27 632.239L1443.32 793.045V865.447L1535.86 920.554V918.389L1445.14 864.365V791.962L1293.26 701.499H1413.37L1535.86 774.456V772.291L1413.86 699.624H1290.08L1175.09 631.157L1221.17 603.722L1320.01 662.578H1478.72L1535.86 696.588V694.423L1523.34 686.977H1535.86V685.102H1520.2L1479.24 660.704H1320.52L1292.85 644.227H1360.33L1360.53 644.095L1394.37 623.948H1535.4L1535.86 624.212V622.047H1397.52L1435.62 599.365C1438.79 600.738 1443.24 600.58 1446.11 598.89C1449.29 596.989 1449.29 593.926 1446.11 592.051C1442.94 590.15 1437.79 590.15 1434.62 592.051C1431.75 593.767 1431.49 596.408 1433.8 598.309L1359.82 642.379H1289.67L1222.96 602.666L1247.61 587.984L1231.74 578.532H1277.85L1338.11 614.416C1335.8 616.317 1336.06 618.957 1338.93 620.674C1342.1 622.575 1347.25 622.575 1350.42 620.674C1353.59 618.773 1353.59 615.71 1350.42 613.835C1347.55 612.119 1343.1 611.987 1339.92 613.36L1278.33 576.683H1228.59L1194.85 556.589L1215.59 544.232H1252.37L1284.73 524.956H1308.87L1363.4 557.434C1360.94 559.335 1361.15 562.055 1364.06 563.798C1367.24 565.699 1372.38 565.699 1375.56 563.798C1378.73 561.896 1378.73 558.833 1375.56 556.959C1372.74 555.295 1368.42 555.11 1365.24 556.378L1309.36 523.108H1284.25L1251.89 542.383H1218.74L1285.06 502.881H1320.88L1395.53 547.321H1535.84V545.446H1396.01L1321.36 501.007H1284.58L1284.37 501.139L1193.04 555.533L1169.07 541.274L1272.29 479.804H1345.1L1405.15 515.556H1535.86V513.681H1405.66L1348.76 479.804H1535.86V477.929H1271.83L1271.63 478.061L1167.31 540.192L1140.07 523.979L1283.99 438.269H1535.86V436.394H1352.31L1535.86 327.078V324.912L1348.68 436.394H1285.32L1421.77 355.146V337.243L1487.07 298.375C1490.24 299.749 1494.7 299.59 1497.57 297.9C1500.74 295.999 1500.74 292.936 1497.57 291.061C1494.39 289.16 1489.25 289.16 1486.07 291.061C1483.2 292.778 1482.95 295.418 1485.25 297.319L1449.69 318.496V269.409L1535.89 218.078V215.913L1447.88 268.327V319.579L1419.95 336.214V354.116L1282.38 436.051L1282.84 436.869L1138.25 522.976L1111.96 507.318L1260.49 418.861V273.344L1535.86 109.343V107.178L1303.85 245.354V113.752L1481.51 8.00069C1481.64 8.0799 1481.75 8.18552 1481.87 8.26474C1485.05 10.1659 1490.19 10.1659 1493.37 8.26474C1496.54 6.36358 1496.54 3.30061 1493.37 1.42587H1493.39ZM1244.11 588.143L1030.76 715.203L817.44 588.169L1030.79 461.109L1244.11 588.143Z" fill="url(#paint0_linear_9_278)"/>
</g>
<defs>
<linearGradient id="paint0_linear_9_278" x1="701" y1="248" x2="1681.5" y2="235.5" gradientUnits="userSpaceOnUse">
<stop stop-color="#724FE5"/>
<stop offset="1" stop-color="#00E0B8"/>
</linearGradient>
</defs>
</svg>
